<?xml version="1.0" standalone="no"?>
<!DOCTYPE svg PUBLIC "-//W3C//DTD SVG 1.1//EN" "http://www.w3.org/Graphics/SVG/1.1/DTD/svg11.dtd" >
<svg xmlns="http://www.w3.org/2000/svg">
<metadata></metadata>
<defs>
<font id="chattyhiveabold" horiz-adv-x="1280" >
<font-face units-per-em="2048" ascent="1638" descent="-410" />
<missing-glyph horiz-adv-x="559" />
<glyph horiz-adv-x="2048" />
<glyph horiz-adv-x="2048" />
<glyph unicode="&#xd;" horiz-adv-x="2048" />
<glyph unicode=" "  horiz-adv-x="559" />
<glyph unicode="&#x09;" horiz-adv-x="559" />
<glyph unicode="&#xa0;" horiz-adv-x="559" />
<glyph unicode="!" horiz-adv-x="399" d="M70 141q0 59 41 101.5t100 42.5t100 -42.5t41 -101.5q0 -58 -42 -99.5t-99 -41.5t-99 41.5t-42 99.5zM106 451v1042q0 44 30.5 75t74.5 31t74 -31t30 -75v-1042q0 -43 -30.5 -74t-73.5 -31t-74 31t-31 74z" />
<glyph unicode="&#x22;" horiz-adv-x="559" d="M61 1493q0 43 31 73.5t74 30.5q41 0 71.5 -30.5t30.5 -73.5l-18 -285q0 -35 -24.5 -59.5t-59.5 -24.5q-36 0 -60 24t-26 60zM307 1495q0 43 31 73.5t74 30.5t73.5 -30.5t30.5 -73.5l-18 -287q-2 -35 -26.5 -59.5t-59.5 -24.5t-59.5 24.5t-24.5 59.5z" />
<glyph unicode="#" d="M63 555v18q8 43 43 73t78 30h129l43 250h-118q-41 0 -68 26.5t-27 65.5q0 47 37.5 84t83.5 37h129l66 360q8 43 42 73t77 30q42 0 68 -27.5t26 -69.5v-14l-64 -352h172l66 360q4 42 40.5 72.5t78.5 30.5q40 0 67 -29t27 -68q0 -12 -2 -14l-62 -352h119q39 0 66.5 -26 t27.5 -66l-2 -19q-3 -40 -40 -71t-79 -31h-129l-45 -250h119q41 0 67.5 -26.5t26.5 -65.5q0 -50 -36 -84.5t-84 -34.5h-129l-66 -363q-4 -42 -40.5 -72t-78.5 -30q-41 0 -67.5 26.5t-26.5 63.5q0 15 2 21l62 354h-173l-63 -363q-7 -43 -42.5 -72.5t-78.5 -29.5q-42 0 -67 27 t-25 67v17l63 354h-118q-41 0 -68 25t-27 65zM528 676h170l45 250h-172z" />
<glyph unicode="$" horiz-adv-x="1060" d="M78 283q0 44 29 73t73 29q26 0 49.5 -15.5t44.5 -38.5t44 -46.5t59 -44t80 -27.5v557q-130 32 -217.5 144t-87.5 249q0 140 84.5 251.5t220.5 146.5v61q0 44 30 74t74 30t74.5 -30t30.5 -74v-61q75 -22 142 -70.5t103 -116.5q15 -30 15 -55q0 -44 -30.5 -74.5 t-74.5 -30.5q-32 0 -55 19.5t-48.5 52t-51.5 49.5v-393q141 -49 231 -175.5t90 -274.5q0 -156 -87 -283.5t-234 -181.5v-74q0 -43 -31 -74t-74 -31t-73.5 31t-30.5 74v49q-109 12 -203.5 68.5t-155.5 146.5q-20 26 -20 66zM360 1167q0 -51 26.5 -98.5t70.5 -73.5v342 q-97 -63 -97 -170zM666 260q63 53 87.5 100.5t24.5 126.5q0 66 -28.5 126.5t-83.5 95.5v-449z" />
<glyph unicode="%" horiz-adv-x="1759" d="M55 1190q0 166 121.5 287.5t288.5 121.5t287 -121.5t120 -287.5t-120 -287t-287 -121t-288.5 121t-121.5 287zM238 104q0 43 24 70l1077 1385q37 40 84 40q44 0 75.5 -30.5t31.5 -73.5q0 -33 -23 -63l-1087 -1399q-29 -33 -78 -33q-43 0 -73.5 30.5t-30.5 73.5zM264 1190 q0 -81 58.5 -140t142.5 -59q81 0 140 59.5t59 139.5t-60 140.5t-139 60.5q-82 0 -141.5 -60.5t-59.5 -140.5zM889 408q0 168 119.5 287.5t287.5 119.5q167 0 288.5 -119t121.5 -288q0 -168 -121 -288t-289 -120q-166 0 -286.5 121t-120.5 287zM1098 408q0 -82 58 -140.5 t140 -58.5q81 0 141 59.5t60 139.5q0 81 -59.5 139.5t-141.5 58.5t-140 -57.5t-58 -140.5z" />
<glyph unicode="&#x26;" horiz-adv-x="1439" d="M72 473q0 193 192 342l78 59l-84 84q-108 114 -108 267q0 101 51.5 188.5t137.5 138t185 50.5q155 0 266 -112t111 -265q0 -164 -151 -297l-91 -70l295 -299l152 164q29 29 76 29q45 0 75.5 -30t30.5 -77q0 -36 -28 -72l-154 -163l227 -232q33 -29 33 -72q0 -44 -33 -75 t-76 -31q-36 0 -73 29l-223 225l-115 -121q-133 -133 -322 -133q-122 0 -225.5 60.5t-165 169.5t-61.5 243zM285 473q0 -119 68 -189.5t171 -70.5q100 0 170 70l117 125l-322 321l-90 -70q-114 -91 -114 -186zM362 1225q0 -69 46 -115l102 -102l94 73q84 66 84 144 q0 67 -49 116.5t-115 49.5q-68 0 -115 -49t-47 -117z" />
<glyph unicode="'" horiz-adv-x="319" d="M61 1493q0 43 31 73.5t74 30.5q41 0 71.5 -30.5t30.5 -73.5l-18 -285q0 -35 -24.5 -59.5t-59.5 -24.5q-36 0 -60 24t-26 60z" />
<glyph unicode="(" horiz-adv-x="559" d="M72 561q0 489 231 965q35 71 98 71q44 0 74.5 -32.5t30.5 -75.5q-3 -37 -14 -53q-216 -443 -216 -877q0 -428 218 -881q12 -24 12 -51q0 -44 -30.5 -75t-74.5 -31q-63 0 -98 69q-231 483 -231 971z" />
<glyph unicode=")" horiz-adv-x="559" d="M72 -373q0 27 12 51q215 447 215 881t-213 877q-11 16 -14 53q0 44 29.5 76t72.5 32q62 0 100 -71q232 -485 232 -965q0 -482 -234 -971q-32 -69 -98 -69q-44 0 -73 30.5t-29 75.5z" />
<glyph unicode="*" horiz-adv-x="780" d="M78 1341q0 47 32 76t72 29q33 3 66 -23l80 -57l-29 94q-6 18 -6 33q0 44 30 75t74 31t74.5 -31t30.5 -75q0 -15 -6 -33l-29 -96l80 59q33 23 65 23q39 0 72 -30t33 -75q0 -39 -28.5 -69.5t-72.5 -34.5l-104 -4l84 -59q47 -35 47 -87q0 -45 -31 -74.5t-88 -29.5 q-59 9 -84 72l-43 102l-41 -104q-24 -70 -100 -70q-47 0 -75.5 31t-28.5 73q0 53 49 87l82 59l-103 4q-44 5 -73 33.5t-29 70.5z" />
<glyph unicode="+" horiz-adv-x="1120" d="M78 788q0 44 30 74.5t74 30.5h275v274q0 43 30.5 74t73.5 31q44 0 74.5 -31t30.5 -74v-274h274q43 0 75 -31.5t32 -75.5q0 -42 -32 -73t-75 -31h-274v-274q0 -44 -30.5 -74.5t-74.5 -30.5t-74 30.5t-30 74.5v274h-275q-44 0 -74 31t-30 75z" />
<glyph unicode="," horiz-adv-x="399" d="M70 141q0 60 40.5 102t100.5 42t100.5 -42t40.5 -102q0 -58 -10.5 -121t-29.5 -119t-50.5 -92t-68.5 -36t-62 24.5t-25 61.5q0 21 23 55t23 49q0 36 -41 80q-41 41 -41 98z" />
<glyph unicode="-" horiz-adv-x="800" d="M74 559q0 44 30 74.5t74 30.5h457q44 0 73 -30t29 -75q0 -44 -29 -73t-73 -29h-457q-44 0 -74 29t-30 73z" />
<glyph unicode="." horiz-adv-x="399" d="M59 141q0 60 41 102t101 42t100.5 -42t40.5 -102q0 -58 -41 -99.5t-100 -41.5t-100.5 41.5t-41.5 99.5z" />
<glyph unicode="/" horiz-adv-x="960" d="M76 -47q0 20 10 43l616 1542q15 25 23 33q31 28 74 28t72.5 -30.5t29.5 -73.5q0 -24 -8 -43l-617 -1542q-38 -62 -96 -62q-44 0 -74 30.5t-30 74.5z" />
<glyph unicode="0" horiz-adv-x="1120" d="M78 801q0 378 128.5 589.5t360.5 211.5t361 -213t129 -588t-129 -588t-361 -213q-233 0 -361 211t-128 590zM289 801q0 -266 71.5 -427t206.5 -161q91 0 155 77.5t94 208t30 302.5q0 171 -30.5 302t-94.5 209.5t-154 78.5q-91 0 -155 -77.5t-93.5 -208t-29.5 -304.5z" />
<glyph unicode="1" horiz-adv-x="559" d="M61 1417q0 66 68 99l227 75q16 8 37 8q44 0 74.5 -31t30.5 -75v-1389q0 -43 -31.5 -73.5t-75.5 -30.5q-43 0 -72.5 30.5t-29.5 73.5v1246q-9 -3 -30.5 -11t-34 -12t-29.5 -8t-29 -4q-45 0 -75 29t-30 73z" />
<glyph unicode="2" horiz-adv-x="1120" d="M78 104q0 46 28 74l650 740q82 82 82 196t-81.5 195.5t-195.5 81.5q-113 0 -193.5 -80.5t-80.5 -196.5q0 -42 -31 -72t-74 -30t-73.5 29.5t-30.5 72.5q0 131 65.5 243t177 177t240.5 65q130 0 242.5 -66t178 -178t65.5 -241q0 -192 -144 -342l-485 -563h522 q44 0 75.5 -31t31.5 -74t-31.5 -73.5t-75.5 -30.5h-758q-43 0 -73.5 30.5t-30.5 73.5z" />
<glyph unicode="3" horiz-adv-x="1120" d="M78 492q0 47 29.5 76.5t74.5 29.5q44 0 74.5 -30t30.5 -76q0 -117 79.5 -198t194.5 -81q116 0 196.5 82t80.5 197q0 116 -80.5 198t-196.5 82q-44 0 -74 31t-30 76q0 44 30 74t74 30q82 0 141.5 60.5t59.5 142.5q0 84 -60.5 144.5t-140.5 60.5q-82 0 -140.5 -60 t-58.5 -145q0 -43 -30.5 -74t-73.5 -31t-73.5 31t-30.5 74q0 172 120 294t287 122t288.5 -123t121.5 -293q0 -166 -123 -295q199 -159 199 -399q0 -99 -38.5 -190t-103.5 -157t-155 -105.5t-189 -39.5q-198 0 -340.5 145t-142.5 347z" />
<glyph unicode="4" d="M80 508q0 36 20 59l682 987q30 45 86 45q43 0 74 -31t31 -75v-883h123q43 0 73.5 -29t30.5 -73t-30.5 -74.5t-73.5 -30.5h-123v-299q0 -43 -31.5 -73.5t-75.5 -30.5q-43 0 -72.5 30.5t-29.5 73.5v299h-580q-44 0 -74 30.5t-30 74.5zM385 610h379v549z" />
<glyph unicode="5" horiz-adv-x="1200" d="M80 522q0 45 29 75t73 30t75.5 -30.5t31.5 -74.5q0 -130 91 -221.5t220 -91.5t221 92t92 221q0 128 -92 221t-221 93h-342q-44 0 -73 30t-29 74v553q0 45 29 75.5t73 30.5h684q43 0 74 -31.5t31 -74.5q0 -42 -31 -72t-74 -30h-580v-347h238q140 0 260 -69.5t191 -190 t71 -262.5q0 -140 -70 -260.5t-190.5 -191t-261.5 -70.5t-261 70.5t-189.5 191t-69.5 260.5z" />
<glyph unicode="6" horiz-adv-x="1120" d="M78 483q0 148 78 267v-2l479 796q30 55 92 55q44 0 74 -30.5t30 -73.5q0 -28 -14 -53l-285 -473h29q132 0 244 -65.5t177 -177.5t65 -243q0 -129 -65 -240.5t-177.5 -177t-243.5 -65.5q-97 0 -186.5 38.5t-154.5 103.5t-103.5 154.5t-38.5 186.5zM287 483 q0 -115 79.5 -194.5t194.5 -79.5q116 0 196.5 81t80.5 193q0 115 -80.5 196t-196.5 81q-115 0 -194.5 -80.5t-79.5 -196.5z" />
<glyph unicode="7" horiz-adv-x="1120" d="M78 104q0 32 18 66l682 1221h-583q-44 0 -74.5 30t-30.5 74q0 43 30.5 73.5t74.5 30.5h759q43 0 74 -30.5t31 -73.5q0 -28 -15 -55l-768 -1383q-9 -15 -20 -26q-31 -31 -76 -31q-43 0 -72.5 30.5t-29.5 73.5z" />
<glyph unicode="8" horiz-adv-x="1120" d="M78 492q0 237 201 397q-123 123 -123 295q0 173 121 293t292 120q170 0 291 -122t121 -291t-123 -295q203 -159 203 -397q0 -99 -39.5 -190t-105.5 -157t-157 -105.5t-190 -39.5q-133 0 -246 66t-179 179.5t-66 246.5zM291 492q0 -117 80.5 -198t197.5 -81 q116 0 197.5 82t81.5 197t-81.5 196.5t-197.5 81.5q-117 0 -197.5 -81t-80.5 -197zM367 1184q0 -85 58 -144t144 -59q80 0 140.5 61t60.5 142t-60.5 141.5t-140.5 60.5q-85 0 -143.5 -59.5t-58.5 -142.5z" />
<glyph unicode="9" horiz-adv-x="1120" d="M78 1108q0 132 66.5 244.5t179.5 178.5t245 66q98 0 189 -39.5t157 -105.5t106 -156.5t40 -187.5q0 -147 -80 -268l-471 -783q-37 -57 -94 -57q-46 0 -77.5 30.5t-31.5 73.5q0 25 17 56l274 454h-29q-132 0 -245 66t-179.5 180t-66.5 248zM291 1108q0 -120 81.5 -200.5 t196.5 -80.5q114 0 196.5 83t82.5 198q0 113 -82.5 195.5t-196.5 82.5q-117 0 -197.5 -81t-80.5 -197z" />
<glyph unicode=":" horiz-adv-x="399" d="M59 141q0 60 41 102t101 42t100.5 -42t40.5 -102q0 -58 -41 -99.5t-100 -41.5t-100.5 41.5t-41.5 99.5zM59 977q0 58 41.5 99.5t100.5 41.5t100 -41.5t41 -99.5q0 -60 -40.5 -101.5t-100.5 -41.5t-101 41.5t-41 101.5z" />
<glyph unicode=";" horiz-adv-x="399" d="M59 141q0 60 41 102t101 42t100.5 -42t40.5 -102q0 -80 -17.5 -162t-55.5 -144t-87 -62q-37 0 -61.5 24.5t-24.5 61.5q0 22 22.5 55.5t22.5 48.5q0 36 -41 80q-41 41 -41 98zM59 977q0 58 41.5 99.5t100.5 41.5t100 -41.5t41 -99.5q0 -60 -40.5 -101.5t-100.5 -41.5 t-101 41.5t-41 101.5z" />
<glyph unicode="&#x3c;" horiz-adv-x="1120" d="M78 713q0 55 55 92l756 455q21 12 51 12q44 0 75.5 -31t31.5 -74q0 -57 -54 -92l-608 -362l608 -367q54 -35 54 -90q0 -44 -31 -74t-76 -30q-31 0 -51 14l-756 452q-55 34 -55 95z" />
<glyph unicode="=" horiz-adv-x="1040" d="M78 483q0 45 29 75t73 30h684q43 0 74 -31t31 -74t-31 -73.5t-74 -30.5h-684q-44 0 -73 30t-29 74zM78 940q0 44 29 74t73 30h684q43 0 74 -30.5t31 -73.5t-31 -73.5t-74 -30.5h-684q-44 0 -73 30t-29 74z" />
<glyph unicode="&#x3e;" horiz-adv-x="1120" d="M78 256q0 56 51 90l610 367l-610 362q-51 34 -51 92q0 43 30.5 74t73.5 31q33 0 54 -12l755 -455q56 -38 56 -92q0 -60 -56 -95l-755 -452q-20 -14 -54 -14q-43 0 -73.5 30t-30.5 74z" />
<glyph unicode="?" horiz-adv-x="1120" d="M78 1114q0 131 65.5 243t177 177t240.5 65q130 0 242.5 -66t178 -178t65.5 -241q0 -197 -144 -344l-158 -143q-79 -79 -79 -176q0 -44 -30.5 -74.5t-74.5 -30.5t-74 30.5t-30 74.5q0 180 143 323l158 146q80 83 80 194q0 114 -81.5 195.5t-195.5 81.5 q-113 0 -193.5 -80.5t-80.5 -196.5q0 -43 -31 -73.5t-74 -30.5q-44 0 -74 30t-30 74zM420 141q0 60 42 102t99 42q60 0 102 -42t42 -102q0 -57 -42 -99t-102 -42q-57 0 -99 42t-42 99z" />
<glyph unicode="@" horiz-adv-x="2240" d="M82 559q0 430 303 733q305 305 735 305q428 0 733 -305q306 -306 306 -733q0 -651 -416 -651q-231 0 -258 207q-163 -129 -365 -129q-235 0 -403 168t-168 405q0 238 168 406t403 168q238 0 406 -168t168 -406v-389q0 -47 49 -47q203 0 203 436q0 342 -242 584 q-244 241 -584 241q-342 0 -583 -241q-242 -242 -242 -584q0 -345 242 -584q241 -241 583 -241q187 0 340 69q24 15 51 15q44 0 75.5 -32.5t31.5 -76.5q0 -33 -20 -62t-50 -36q-200 -90 -428 -90q-430 0 -735 305q-303 303 -303 733zM762 559q0 -150 104 -254t254 -104 t254.5 105.5t104.5 252.5t-104.5 253t-254.5 106q-149 0 -253.5 -105t-104.5 -254z" />
<glyph unicode="A" horiz-adv-x="1439" d="M78 106q0 21 10 48l535 1374q30 71 100 71q73 0 100 -71l537 -1378q8 -19 8 -44q0 -44 -31 -75t-75 -31q-43 0 -74 31q-15 15 -25 35l-184 475h-512l-186 -475q-10 -20 -25 -35q-31 -31 -74 -31q-44 0 -74 31t-30 75zM549 752h348l-174 448z" />
<glyph unicode="B" horiz-adv-x="1120" d="M74 106v1387q0 44 31.5 75t74.5 31h309q170 0 292 -121t122 -292q0 -151 -94 -264q120 -73 184 -185.5t64 -244.5q0 -99 -39 -190t-105 -157t-157.5 -105.5t-190.5 -39.5h-385q-43 0 -74.5 31t-31.5 75zM287 213h278q116 0 198.5 81.5t82.5 197.5t-82.5 197t-198.5 81 h-278v-557zM287 983h202q83 0 142 60.5t59 142.5t-59.5 142.5t-141.5 60.5h-202v-406z" />
<glyph unicode="C" horiz-adv-x="1480" d="M78 801q0 329 233 565q236 233 568 233q283 0 512 -186q28 -28 28 -74q0 -44 -31 -74t-75 -30q-37 0 -74 29q-156 125 -360 125q-243 0 -418 -175q-170 -170 -170 -413q0 -246 170 -416q172 -172 418 -172q210 0 366 129q27 15 64 18q43 0 73.5 -31t30.5 -75 q0 -43 -33 -76q-224 -178 -501 -178q-332 0 -568 233q-233 236 -233 568z" />
<glyph unicode="D" horiz-adv-x="1359" d="M76 106v1387q0 44 31.5 75t74.5 31h310q329 0 565 -233q233 -236 233 -565q0 -332 -233 -568q-236 -233 -565 -233h-310q-43 0 -74.5 31t-31.5 75zM289 213h203q241 0 413 172q174 171 174 416q0 242 -174 413q-172 175 -413 175h-203v-1176z" />
<glyph unicode="E" d="M76 106v1387q0 44 31 75t75 31h926q43 0 73.5 -31t30.5 -75q0 -43 -30.5 -73.5t-73.5 -30.5h-819v-484h588q43 0 73.5 -30.5t30.5 -73.5q0 -44 -30.5 -75.5t-73.5 -31.5h-588v-481h819q42 0 73 -32t31 -75q0 -44 -30.5 -75t-73.5 -31h-926q-44 0 -75 31t-31 75z" />
<glyph unicode="F" d="M76 106v1387q0 44 31 75t75 31h926q43 0 73.5 -31t30.5 -75q0 -43 -30.5 -73.5t-73.5 -30.5h-819v-484h588q43 0 73.5 -30.5t30.5 -73.5q0 -44 -30.5 -75.5t-73.5 -31.5h-588v-588q0 -44 -32 -75t-75 -31q-44 0 -75 31t-31 75z" />
<glyph unicode="G" horiz-adv-x="1499" d="M78 801q0 329 233 565q236 233 568 233q283 0 512 -186q28 -28 28 -74q0 -44 -31 -74t-75 -30q-37 0 -74 29q-156 125 -360 125q-243 0 -418 -175q-170 -170 -170 -413q0 -246 170 -416q172 -172 418 -172q180 0 323 94v309h-276q-44 0 -75.5 31.5t-31.5 75.5t31.5 75 t75.5 31h383q42 0 73 -32t31 -74v-469q0 -43 -33 -76q-224 -178 -501 -178q-332 0 -568 233q-233 236 -233 568z" />
<glyph unicode="H" d="M76 106v1387q0 44 31 75t75 31q43 0 75 -31t32 -75v-588h712v588q0 44 31.5 75t75.5 31q43 0 73.5 -31t30.5 -75v-1387q0 -44 -30.5 -75t-73.5 -31q-44 0 -75.5 31t-31.5 75v588h-712v-588q0 -44 -32 -75t-75 -31q-44 0 -75 31t-31 75z" />
<glyph unicode="I" horiz-adv-x="479" d="M145 106v1387q0 44 32 75t75 31q44 0 75 -31t31 -75v-1387q0 -44 -31 -75t-75 -31q-43 0 -75 31t-32 75z" />
<glyph unicode="J" horiz-adv-x="1120" d="M74 492q0 44 31 75t75 31q43 0 75 -31t32 -75q0 -117 80.5 -198t197.5 -81q116 0 198.5 81.5t82.5 197.5v1001q0 44 30.5 75t73.5 31q44 0 75.5 -31t31.5 -75v-1001q0 -99 -39 -190t-105 -157t-157.5 -105.5t-190.5 -39.5q-133 0 -246 66.5t-179 180t-66 245.5z" />
<glyph unicode="K" horiz-adv-x="1200" d="M76 106v1387q0 44 30.5 75t73.5 31q44 0 75.5 -31t31.5 -75v-592l665 666q32 32 76 32t75.5 -31t31.5 -75q0 -43 -31 -74l-524 -524l534 -725q21 -27 21 -61q0 -43 -30.5 -76t-74.5 -33q-59 0 -88 45l-514 696l-141 -141v-494q0 -44 -31.5 -75t-75.5 -31q-43 0 -73.5 31 t-30.5 75z" />
<glyph unicode="L" horiz-adv-x="1200" d="M76 106v1387q0 44 30.5 75t73.5 31q44 0 75.5 -31t31.5 -75v-1280h741q44 0 75.5 -32t31.5 -75q0 -44 -31.5 -75t-75.5 -31h-848q-44 0 -74 31t-30 75z" />
<glyph unicode="M" horiz-adv-x="1759" d="M80 106v1387q0 44 31 75t75 31q61 0 95 -57l600 -1198l600 1198q34 57 94 57q43 0 73.5 -31t30.5 -75v-1387q0 -44 -30.5 -75t-73.5 -31q-44 0 -75.5 31t-31.5 75v938l-495 -991q-35 -53 -92 -53q-70 0 -99 63l-489 981v-938q0 -44 -32 -75t-75 -31q-44 0 -75 31t-31 75z " />
<glyph unicode="N" horiz-adv-x="1439" d="M78 106v1387q0 44 30 75t74 31q50 0 82 -38l893 -1147v1079q0 44 31.5 75t75.5 31q43 0 73.5 -31t30.5 -75v-1387q0 -44 -30.5 -75t-73.5 -31q-48 0 -82 37l-893 1147v-1078q0 -44 -31.5 -75t-75.5 -31q-43 0 -73.5 31t-30.5 75z" />
<glyph unicode="O" horiz-adv-x="1759" d="M80 801q0 329 233 565q236 233 568 233q329 0 565 -233q233 -236 233 -565q0 -332 -233 -568q-236 -233 -565 -233q-332 0 -568 233q-233 236 -233 568zM293 801q0 -247 172 -416q172 -172 416 -172q243 0 415 172q172 169 172 416q0 241 -172 413q-175 175 -415 175 q-244 0 -416 -175q-172 -169 -172 -413z" />
<glyph unicode="P" horiz-adv-x="1079" d="M74 106v1387q0 44 31 75t75 31h307q142 0 265 -71t195.5 -193t72.5 -266q0 -217 -158 -375q-156 -153 -375 -153h-200v-435q0 -44 -32 -75t-75 -31q-44 0 -75 31t-31 75zM287 752h200q129 0 224.5 94t95.5 223q0 134 -95 227t-225 93h-200v-637z" />
<glyph unicode="Q" horiz-adv-x="1759" d="M80 801q0 329 233 565q236 233 568 233q329 0 565 -233q233 -236 233 -565q0 -285 -163 -488l135 -133q28 -36 28 -74q0 -44 -30.5 -75t-73.5 -31q-47 0 -78 31l-131 133q-205 -164 -485 -164q-332 0 -568 233q-233 236 -233 568zM293 801q0 -247 172 -416 q172 -172 416 -172q189 0 333 102l-141 140q-29 37 -29 75q0 45 31 76t76 31t74 -33l141 -137q102 144 102 334q0 241 -172 413q-175 175 -415 175q-244 0 -416 -175q-172 -169 -172 -413z" />
<glyph unicode="R" horiz-adv-x="1200" d="M76 106v1387q0 44 30 75t74 31h387q133 0 246.5 -66t179.5 -179t66 -246t-67.5 -248t-192.5 -184l319 -512q17 -31 17 -58q0 -44 -31.5 -75t-75.5 -31q-56 0 -90 51l-352 565h-299v-510q0 -44 -31.5 -75t-75.5 -31q-43 0 -73.5 31t-30.5 75zM287 829h280q116 0 197.5 82 t81.5 197t-82.5 198t-196.5 83h-280v-560z" />
<glyph unicode="S" horiz-adv-x="1060" d="M74 287q0 43 31 73.5t75 30.5q61 0 88 -49q88 -129 242 -129q115 0 195.5 82t80.5 199q0 108 -75.5 188t-180.5 88q-158 12 -269 132.5t-111 279.5q0 194 147 317h-2q112 100 270 100q105 0 199.5 -52t157.5 -150q14 -25 14 -58q0 -44 -31 -74t-76 -30q-37 0 -61 19.5 t-49 62.5q-48 69 -156 69q-79 0 -140 -59t-61 -143q0 -78 53.5 -137t131.5 -66q123 -8 227 -75t164.5 -175.5t60.5 -232.5q0 -236 -174 -379h2q-137 -119 -315 -119q-121 0 -234 58.5t-184 162.5q-20 26 -20 66z" />
<glyph unicode="T" horiz-adv-x="1359" d="M78 1493q0 44 30.5 75t73.5 31h1004q43 0 73.5 -31t30.5 -75q0 -43 -30.5 -73.5t-73.5 -30.5h-395v-1283q0 -44 -32 -75t-75 -31t-74.5 31t-31.5 75v1283h-396q-43 0 -73.5 30.5t-30.5 73.5z" />
<glyph unicode="U" d="M76 569v924q0 44 31 75t75 31q43 0 75 -31t32 -75v-924q0 -148 103 -252t251 -104q149 0 253.5 104t104.5 252v924q0 44 31.5 75t75.5 31q43 0 73.5 -31t30.5 -75v-924q0 -153 -76.5 -284t-207.5 -208t-285 -77q-237 0 -399 168q-168 165 -168 401z" />
<glyph unicode="V" horiz-adv-x="1439" d="M78 1493q0 44 30 75t74 31q73 0 99 -63l442 -1137l442 1137q23 63 99 63q43 0 73.5 -31t30.5 -75q0 -23 -10 -53l-539 -1372q-27 -68 -96 -68t-96 68l-539 1372q-10 33 -10 53z" />
<glyph unicode="W" horiz-adv-x="1918" d="M82 1493q0 44 31 75t75 31t74 -30q18 -18 27 -39l284 -1028l283 1026q8 31 36.5 51t65.5 20q33 0 62 -19t39 -50l284 -1028l287 1028q6 20 25 39q30 30 76 30q43 0 73.5 -31t30.5 -75q0 -20 -6 -41l-379 -1366q-12 -39 -41.5 -62.5t-65.5 -23.5q-47 0 -73 33 q-21 21 -33 51l-279 1012l-278 -1010q-14 -39 -42.5 -62.5t-64.5 -23.5q-46 0 -75 33q-23 20 -31 51l-379 1368q-6 24 -6 41z" />
<glyph unicode="X" horiz-adv-x="1439" d="M76 104q0 40 22 68l490 629l-492 631q-18 27 -18 61q0 44 30.5 75t73.5 31q49 0 76 -30l465 -596l465 596q27 30 76 30q43 0 73.5 -31t30.5 -75q0 -34 -18 -61l-492 -631l490 -629q20 -26 20 -68q0 -43 -30 -73.5t-74 -30.5q-56 0 -82 39l-459 588l-467 -596 q-31 -31 -74 -31q-44 0 -75 30.5t-31 73.5z" />
<glyph unicode="Y" d="M76 1493q0 44 31 75t75 31q56 0 86 -43l375 -563l377 563q30 43 88 43q43 0 73.5 -31t30.5 -75q0 -33 -16 -59l-446 -666v-662q0 -44 -31.5 -75t-75.5 -31q-43 0 -73.5 31t-30.5 75v662l-447 666q-16 29 -16 59z" />
<glyph unicode="Z" horiz-adv-x="1439" d="M78 106q0 40 20 66l949 1217h-865q-43 0 -73.5 30.5t-30.5 73.5q0 44 30.5 75t73.5 31h1082q43 0 73.5 -31t30.5 -75q0 -34 -18 -61l-951 -1219h865q44 -1 74 -33t30 -76q0 -43 -30 -73.5t-74 -30.5h-1082q-44 0 -74 31t-30 75z" />
<glyph unicode="[" horiz-adv-x="638" d="M76 -373v1866q0 45 30 77t76 32h312q46 0 76 -32t30 -77t-29.5 -74.5t-76.5 -29.5h-205v-1655h205q47 0 76.5 -30t29.5 -77t-29.5 -76.5t-76.5 -29.5h-312q-47 0 -76.5 29.5t-29.5 76.5z" />
<glyph unicode="\" horiz-adv-x="960" d="M59 1493q0 44 31.5 76.5t75.5 32.5q71 0 98 -64l619 -1550q10 -20 10 -43q0 -44 -31.5 -75.5t-75.5 -31.5q-31 0 -58.5 17t-39.5 47l-620 1548q-9 21 -9 43z" />
<glyph unicode="]" horiz-adv-x="638" d="M76 -373q0 47 29.5 77t76.5 30h205v1655h-205q-47 0 -76.5 29.5t-29.5 74.5t30 77t76 32h312q46 0 76 -32t30 -77v-1866q0 -47 -29.5 -76.5t-76.5 -29.5h-312q-47 0 -76.5 29.5t-29.5 76.5z" />
<glyph unicode="^" horiz-adv-x="960" d="M76 1038q0 36 14 56l307 460q26 45 86 45q53 0 86 -45l308 -460q16 -22 16 -56q0 -43 -31 -73.5t-74 -30.5q-51 0 -86 41l-219 330l-219 -330q-35 -41 -84 -41q-44 0 -74 30t-30 74z" />
<glyph unicode="_" horiz-adv-x="960" d="M-88 -104q0 43 30 73.5t74 30.5h961q43 0 72.5 -30.5t29.5 -73.5t-30 -74t-72 -31h-961q-44 0 -74 31t-30 74z" />
<glyph unicode="`" horiz-adv-x="559" d="M72 1493q0 45 29 75.5t73 30.5q42 0 76 -30l199 -201q26 -26 26 -70t-30 -74t-74 -30q-43 0 -72 29l-201 198q-26 26 -26 72z" />
<glyph unicode="a" horiz-adv-x="1155" d="M49 356q0 169 133.5 265t376.5 96q17 0 34 -0.5t35.5 -2.5t31.5 -3.5t33.5 -5t30 -5t32 -6.5t28.5 -6.5t31 -7t29 -6.5q0 120 -75.5 175.5t-223.5 55.5q-115 0 -279 -71q-25 -11 -45 -11q-42 0 -73 31.5t-31 71.5q0 51 64 96.5t166 71.5t212 26q245 0 369.5 -111.5 t124.5 -332.5v-557q0 -45 -28.5 -76t-74.5 -31q-45 0 -73 23t-33 61q-137 -96 -371 -96q-179 0 -301.5 95t-122.5 261zM258 354q0 -75 68.5 -111t179.5 -36v-2q84 1 159 24.5t127 75t52 121.5v39q-205 43 -316 43q-122 0 -194.5 -43t-75.5 -111z" />
<glyph unicode="b" d="M80 559v936q0 44 30 74t74 30q43 0 74 -30t31 -74v-500q149 125 352 125q228 0 395 -164q164 -164 164 -397q0 -231 -164 -395q-167 -164 -395 -164q-233 0 -397 164t-164 395zM289 559q0 -144 102 -247t250 -103q144 0 247 103.5t103 246.5q0 145 -102.5 248.5 t-247.5 103.5q-148 0 -250 -103t-102 -249z" />
<glyph unicode="c" horiz-adv-x="1120" d="M78 559q0 233 164 397t397 164q213 0 365 -137q34 -30 34 -78q0 -44 -29 -74t-73 -30q-39 0 -70 22q-105 88 -227 88q-148 0 -250 -102t-102 -250q0 -145 102.5 -247.5t249.5 -102.5q124 0 227 86q24 19 66 22q44 0 74 -30t30 -74q0 -46 -32 -78q-156 -135 -365 -135 q-233 0 -397 164t-164 395z" />
<glyph unicode="d" d="M80 559q0 233 164 397t397 164q200 0 350 -123v498q0 44 30.5 74t74.5 30q43 0 73.5 -30t30.5 -74v-936q0 -231 -164 -395q-167 -164 -395 -164q-233 0 -397 164t-164 395zM289 559q0 -144 102 -247t250 -103q144 0 247 103.5t103 246.5q0 145 -102.5 248.5t-247.5 103.5 q-148 0 -250 -103t-102 -249z" />
<glyph unicode="e" d="M80 559q0 233 164 397t397 164q228 0 395 -164q164 -164 164 -397q0 -44 -30.5 -73t-73.5 -29h-793q32 -110 126.5 -179t211.5 -69q122 0 221 80q29 23 70 26q44 0 74 -30t30 -74q0 -42 -30 -76q-153 -135 -365 -135q-233 0 -397 164t-164 395zM303 664h674 q-32 109 -127 178t-209 69q-117 0 -211.5 -68.5t-126.5 -178.5z" />
<glyph unicode="f" horiz-adv-x="800" d="M66 958q0 44 30 74.5t74 30.5h47v51q0 485 483 485q43 0 74 -30.5t31 -73.5q0 -44 -31 -74t-74 -30q-274 0 -274 -277v-51h201q42 0 72 -31t30 -74t-29.5 -73.5t-72.5 -30.5h-201v-750q0 -43 -30.5 -73.5t-73.5 -30.5q-44 0 -74.5 30.5t-30.5 73.5v750h-47q-44 0 -74 30 t-30 74z" />
<glyph unicode="g" d="M80 559q0 233 164 397t397 164q228 0 395 -164q164 -164 164 -397v-555q0 -105 -48.5 -197t-127 -153.5t-177.5 -97t-200 -35.5q-162 0 -303 82t-223 229q-17 24 -17 55q0 44 31.5 74.5t75.5 30.5q29 0 47 -15q15 -10 57.5 -65t57.5 -70q112 -112 274 -112q165 0 275 110 q69 81 69 164v119q-150 -123 -350 -123q-233 0 -397 164t-164 395zM289 559q0 -144 102 -247t250 -103q144 0 247 103.5t103 246.5q0 145 -102.5 248.5t-247.5 103.5q-148 0 -250 -103t-102 -249z" />
<glyph unicode="h" horiz-adv-x="1200" d="M80 104v1391q0 43 29.5 73.5t72.5 30.5t74 -30.5t33 -73.5v-479q132 102 311 102q140 0 260 -69.5t191 -190t71 -262.5v-492q0 -43 -30.5 -73.5t-73.5 -30.5t-74 30.5t-31 73.5v492q0 128 -92 220.5t-221 92.5q-128 0 -219.5 -92t-91.5 -221v-492q0 -43 -31.5 -73.5 t-75.5 -30.5q-43 0 -72.5 30.5t-29.5 73.5z" />
<glyph unicode="i" horiz-adv-x="479" d="M117 1319q0 51 36 87t87 36t86.5 -36t35.5 -87t-35.5 -87t-86.5 -36t-87 36t-36 87zM135 104v912q0 43 31 73.5t74 30.5t73.5 -30.5t30.5 -73.5v-912q0 -43 -30.5 -73.5t-73.5 -30.5t-74 30.5t-31 73.5z" />
<glyph unicode="j" horiz-adv-x="655" d="M-4 -375q0 45 29 75t73 30q115 0 196 80.5t81 193.5v1012q0 43 30.5 73.5t73.5 30.5t74 -30.5t31 -73.5v-1012q0 -129 -65.5 -240.5t-177.5 -177t-243 -65.5q-44 0 -73 30t-29 74zM356 1319q0 51 36 87t87 36t87 -36t36 -87t-36 -87t-87 -36t-87 36t-36 87z" />
<glyph unicode="k" horiz-adv-x="1120" d="M78 104v1391q0 43 30.5 73.5t73.5 30.5t74 -30.5t31 -73.5v-780l598 389q26 16 55 16q44 0 75.5 -30.5t31.5 -73.5q0 -55 -41 -82l-418 -272l430 -486q29 -32 29 -72q0 -43 -31.5 -73.5t-75.5 -30.5q-43 0 -70 27l-460 520l-123 -80v-363q0 -43 -31 -73.5t-74 -30.5 t-73.5 30.5t-30.5 73.5z" />
<glyph unicode="l" horiz-adv-x="350" d="M70 104v1391q0 43 30 73.5t74 30.5t74.5 -30.5t30.5 -73.5v-1391q0 -43 -30.5 -73.5t-74.5 -30.5t-74 30.5t-30 73.5z" />
<glyph unicode="m" horiz-adv-x="1759" d="M86 104v912q0 43 30.5 73.5t73.5 30.5q35 0 61.5 -19.5t37.5 -51.5q109 71 243 71q210 0 342 -159q138 159 340 159q183 0 315 -131.5t132 -314.5v-570q0 -43 -31 -73.5t-74 -30.5t-73.5 30.5t-30.5 73.5v570q0 98 -69 167.5t-169 69.5q-98 0 -166.5 -70t-68.5 -167v-570 q0 -43 -31 -73.5t-74 -30.5q-44 0 -75 30.5t-31 73.5v570q0 97 -69 167t-167 70t-167.5 -69.5t-69.5 -167.5v-570q0 -43 -31 -73.5t-74 -30.5t-73.5 30.5t-30.5 73.5z" />
<glyph unicode="n" horiz-adv-x="1200" d="M80 104v912q0 43 30 73.5t74 30.5q43 0 74 -30.5t31 -71.5q132 102 311 102q140 0 260 -69.5t191 -190t71 -262.5v-494q0 -43 -29.5 -73.5t-72.5 -30.5q-44 0 -75.5 30.5t-31.5 73.5v494q0 128 -92 220.5t-221 92.5q-128 0 -219.5 -92t-91.5 -221v-494q0 -43 -31 -73.5 t-74 -30.5q-44 0 -74 30.5t-30 73.5z" />
<glyph unicode="o" d="M80 559q0 233 164 397t397 164q228 0 395 -164q161 -161 164 -397q0 -231 -164 -395q-167 -164 -395 -164q-233 0 -397 164t-164 395zM289 559q0 -144 102 -247t250 -103q144 0 247 103.5t103 246.5q0 145 -102.5 248.5t-247.5 103.5q-148 0 -250 -103t-102 -249z" />
<glyph unicode="p" d="M80 -377v936q0 233 164 397t397 164q228 0 395 -164q164 -164 164 -397q0 -231 -164 -395q-170 -164 -395 -164q-202 0 -352 123v-500q0 -44 -31 -73t-74 -29q-44 0 -74 29t-30 73zM289 559q0 -144 102 -247t250 -103q144 0 247 103.5t103 246.5q0 145 -102.5 248.5 t-247.5 103.5q-148 0 -250 -103t-102 -249z" />
<glyph unicode="q" d="M80 559q0 233 164 397t397 164q228 0 395 -164q164 -164 164 -397v-936q0 -44 -30.5 -73t-73.5 -29q-45 0 -75 29t-30 73v500q-150 -123 -350 -123q-233 0 -397 164t-164 395zM289 559q0 -144 102 -247t250 -103q144 0 247 103.5t103 246.5q0 145 -102.5 248.5 t-247.5 103.5q-148 0 -250 -103t-102 -249z" />
<glyph unicode="r" horiz-adv-x="960" d="M76 104v912q0 43 30.5 73.5t73.5 30.5t74 -30.5t31 -73.5v-21q152 125 352 125q49 0 94.5 -6t91 -20t72.5 -43.5t27 -69.5q0 -44 -31 -75.5t-74 -31.5q-16 0 -45 13q-62 24 -135 24q-148 0 -250 -102t-102 -250v-455q0 -43 -31 -73.5t-74 -30.5t-73.5 30.5t-30.5 73.5z " />
<glyph unicode="s" horiz-adv-x="1060" d="M78 788q0 97 68.5 175t171 117.5t214.5 39.5q249 0 431 -200q20 -26 20 -64q0 -44 -30 -74t-74 -30q-10 0 -20 2.5t-17 5.5t-17 10.5t-14.5 11.5t-15.5 14t-15 13q-102 102 -248 102q-144 0 -229 -88q-16 -16 -16 -45q0 -28 26 -37l467 -153q101 -41 133 -76h-2 q76 -76 76 -180q0 -73 -40 -137t-105 -105.5t-146 -65.5t-164 -24q-253 0 -428 199q-22 28 -22 65q0 44 30 74.5t74 30.5q10 0 20.5 -3t17.5 -6t18 -11.5t14.5 -11t15.5 -14t13 -12.5q102 -102 247 -102q142 0 232 90q14 14 14 41q0 30 -26 39l-467 153q-93 37 -133 74 q-74 77 -74 182z" />
<glyph unicode="t" horiz-adv-x="800" d="M76 1016q0 43 29.5 73.5t72.5 30.5h47v375q0 43 31 73.5t74 30.5t73.5 -30.5t30.5 -73.5v-375h125q43 0 73 -30.5t30 -73.5t-30 -74t-73 -31h-125v-503q0 -199 201 -199q42 0 72 -31t30 -74t-29.5 -73.5t-72.5 -30.5q-410 0 -410 408v503h-47q-42 0 -72 31t-30 74z" />
<glyph unicode="u" horiz-adv-x="1200" d="M80 522v494q0 43 30 73.5t74 30.5q43 0 74 -30.5t31 -73.5v-494q0 -130 91 -221.5t220 -91.5t221 92t92 221v494q0 43 31.5 73.5t75.5 30.5q43 0 72.5 -30.5t29.5 -73.5v-912q0 -43 -30 -73.5t-74 -30.5t-73.5 29.5t-31.5 72.5q-127 -102 -313 -102q-141 0 -261 70.5 t-189.5 191t-69.5 260.5z" />
<glyph unicode="v" horiz-adv-x="1200" d="M80 1016q0 43 29 73.5t73 30.5q65 0 92 -53l326 -713l328 713q27 53 90 53q43 0 73.5 -30.5t30.5 -73.5q0 -25 -8 -41l-422 -920q-27 -55 -92 -55q-66 0 -90 55l-424 920q-6 21 -6 41z" />
<glyph unicode="w" horiz-adv-x="1599" d="M84 1016q0 43 30.5 73.5t73.5 30.5q34 0 59 -16t36 -41l209 -629l202 608q28 78 103 78q72 0 100 -78l203 -608l209 629q8 25 33 41t61 16q43 0 73.5 -30.5t30.5 -73.5q0 -20 -8 -39l-303 -909q-17 -68 -96 -68q-34 0 -62.5 20.5t-36.5 47.5l-204 616l-207 -616 q-8 -29 -35.5 -48.5t-62.5 -19.5t-61.5 19t-37.5 49l-303 909q-6 21 -6 39z" />
<glyph unicode="x" horiz-adv-x="1120" d="M78 104q0 40 20 66l328 391l-324 385q-24 27 -24 70t30.5 73.5t73.5 30.5q48 0 78 -35l301 -360l303 360q30 35 76 35q44 0 75.5 -30.5t31.5 -73.5q0 -34 -25 -70l-326 -385l328 -391q23 -30 23 -66q0 -43 -31.5 -73.5t-75.5 -30.5q-45 0 -74 33l-305 364l-305 -364 q-29 -33 -74 -33q-43 0 -73.5 30.5t-30.5 73.5z" />
<glyph unicode="y" horiz-adv-x="1120" d="M78 1016q0 43 30.5 73.5t73.5 30.5q32 0 59 -17.5t40 -51.5l280 -670l283 672q23 67 96 67q44 0 75.5 -30.5t31.5 -73.5q0 -21 -13 -47l-573 -1379q-14 -31 -41.5 -50t-59.5 -19q-44 0 -74 30t-30 74q0 22 10 45l183 434l-361 865q-10 23 -10 47z" />
<glyph unicode="z" horiz-adv-x="1120" d="M78 104q0 40 20 66l621 741h-537q-42 0 -72 31t-30 74t29.5 73.5t72.5 30.5h758q44 0 75.5 -30.5t31.5 -73.5q0 -42 -25 -70l-619 -737h537q43 0 73.5 -31t30.5 -74t-30.5 -73.5t-73.5 -30.5h-758q-43 0 -73.5 30.5t-30.5 73.5z" />
<glyph unicode="{" horiz-adv-x="800" d="M74 559q0 44 30 74.5t74 30.5q123 0 123 124v478q0 333 334 333q44 0 73 -30.5t29 -75.5q0 -43 -29 -72.5t-73 -29.5q-125 0 -125 -125v-478q0 -145 -66 -229q66 -84 66 -227v-477q0 -125 125 -125q44 0 73 -30t29 -75q0 -44 -29 -74t-73 -30q-334 0 -334 334v477 q0 125 -123 125q-44 0 -74 29t-30 73z" />
<glyph unicode="|" horiz-adv-x="800" d="M301 -375v1870q0 44 30.5 74t74.5 30t74 -30t30 -74v-1870q0 -44 -30 -74t-74 -30t-74.5 30t-30.5 74z" />
<glyph unicode="}" horiz-adv-x="800" d="M74 -375q0 44 30 74.5t74 30.5q123 0 123 125v477q0 144 68 227q-68 83 -68 229v478q0 125 -123 125q-44 0 -74 29.5t-30 72.5q0 44 30 75t74 31q334 0 334 -333v-478q0 -124 123 -124q44 0 73 -30t29 -75q0 -44 -29 -73t-73 -29q-123 0 -123 -125v-477q0 -334 -334 -334 q-44 0 -74 30t-30 74z" />
<glyph unicode="~" horiz-adv-x="960" d="M68 748q0 46 30 75t72 29q35 0 82 -35q44 -33 84 -33q44 0 74 27q87 84 219 84q52 0 111.5 -20t106 -61t46.5 -91q0 -44 -31 -74.5t-74 -30.5q-35 0 -79 33t-84 33q-39 0 -74 -27q-88 -82 -219 -82q-54 0 -113 19t-105 60t-46 94z" />
<glyph unicode="&#xa1;" horiz-adv-x="399" d="M70 979q0 58 42 99.5t99 41.5t99 -41.5t42 -99.5q0 -60 -40.5 -101.5t-100.5 -41.5t-100.5 41.5t-40.5 101.5zM106 -375v1045q0 41 31 71.5t74 30.5t73.5 -29t30.5 -73v-1045q0 -43 -30 -73.5t-74 -30.5t-74.5 30.5t-30.5 73.5z" />
<glyph unicode="&#xa2;" horiz-adv-x="1120" d="M84 559q0 113 45 217t120 179t178.5 120t215.5 45h29l96 238q15 42 57 57q16 8 41 8q43 0 74 -30.5t31 -73.5q0 -18 -8 -39l-84 -209q36 -19 61 -34t52 -36t41 -45.5t14 -50.5q0 -44 -31 -74t-76 -30q-22 0 -43 10.5t-49.5 31.5t-46.5 31l-262 -651q52 -14 104 -14 q129 0 229 86q28 22 66 22q44 0 74 -30t30 -74q0 -46 -32 -78q-156 -135 -367 -135q-91 0 -180 29l-107 -267q-12 -27 -39.5 -46t-58.5 -19q-42 0 -73 32t-31 72q0 23 8 39l117 295l-29 29q-166 163 -166 395zM293 559q0 -116 69 -213l226 559q-129 -20 -212 -119t-83 -227z " />
<glyph unicode="&#xa3;" horiz-adv-x="1040" d="M78 723q0 44 30 74t74 30h66q-18 90 -64 201q-30 74 -30 156q0 172 122 292.5t291 120.5q208 0 346 -184q21 -27 21 -63q0 -44 -31.5 -75.5t-75.5 -31.5q-18 0 -35 8.5t-26.5 17.5t-28 29.5t-26.5 28.5q-59 59 -144 59q-82 0 -142 -60t-60 -142q0 -36 18 -76 q58 -137 82 -281h258q44 0 74 -30t30 -74q0 -47 -30 -78t-74 -31h-244q-3 -197 -67 -401h321q5 9 16.5 33t16.5 33.5t16 27t19 25.5t19.5 18t25 13.5t28.5 3.5q44 0 75.5 -32.5t31.5 -74.5q0 -28 -12 -49l-74 -148q-34 -63 -96 -63h-539q-50 0 -78 29t-28 75q0 30 8 43 q103 245 106 467h-86q-44 0 -74 31t-30 78z" />
<glyph unicode="&#xa4;" horiz-adv-x="960" d="M104 465q0 43 31 74l53 49q-36 68 -36 151t34 150l-51 53q-31 28 -31 74q0 43 31 73.5t74 30.5q41 0 72 -28l51 -56q76 40 151 37q76 0 148 -35l55 52q30 30 74 30t73 -30.5t29 -73.5q0 -48 -31 -76l-49 -47q33 -65 33 -154q0 -83 -33 -145l52 -55q28 -31 28 -74 q0 -45 -29 -75t-73 -30q-40 0 -74 27l-49 55q-69 -34 -154 -34q-80 0 -145 32l-53 -49q-36 -31 -76 -31q-44 0 -74.5 30.5t-30.5 74.5zM360 739q0 -48 35.5 -85.5t87.5 -37.5q53 0 88 36t35 87q0 53 -36 89t-87 36q-50 0 -86.5 -36.5t-36.5 -88.5z" />
<glyph unicode="&#xa5;" d="M80 584q0 44 30 74t74 30h351v92l-52 78h-299q-44 0 -74 31t-30 76q0 44 30 73t74 29h160l-248 369q-16 29 -16 59q0 43 30 73.5t74 30.5q54 0 84 -43l373 -555l369 555q34 43 86 43q44 0 73 -30.5t29 -73.5q0 -34 -14 -59l-248 -369h160q45 0 75.5 -29t30.5 -73 q0 -47 -30.5 -77t-75.5 -30h-299l-54 -78v-92h353q43 0 73.5 -30t30.5 -74t-30.5 -74.5t-73.5 -30.5h-353v-373q0 -44 -30 -75t-74 -31t-74 31t-30 75v373h-351q-44 0 -74 30.5t-30 74.5z" />
<glyph unicode="&#xa6;" horiz-adv-x="479" d="M145 309q0 44 30.5 74.5t74.5 30.5t74 -30.5t30 -74.5v-684q0 -44 -30 -74t-74 -30t-74.5 30t-30.5 74v684zM145 940v682q0 44 30.5 74t74.5 30t74 -30t30 -74v-682q0 -44 -30 -74t-74 -30t-74.5 30t-30.5 74z" />
<glyph unicode="&#xa7;" horiz-adv-x="960" d="M76 -59q0 45 30.5 75.5t77.5 30.5q44 0 74.5 -31t30.5 -75q0 -84 60.5 -144.5t144.5 -60.5q82 0 143 60.5t61 144.5q0 82 -61 142t-143 60q-172 0 -295 123t-123 295q0 174 137 311q-75 70 -106 145.5t-31 166.5q0 171 123.5 294.5t294.5 123.5q172 0 294.5 -123 t122.5 -295q0 -48 -29.5 -78.5t-76.5 -30.5q-45 0 -76 31t-31 78q0 83 -61 144t-143 61q-83 0 -144 -61t-61 -144q0 -85 60 -145t145 -60q172 0 294.5 -123t122.5 -295q0 -175 -139 -311q139 -136 139 -309q0 -172 -123 -296t-294 -124q-112 0 -208.5 57t-153 153.5 t-56.5 209.5zM289 561q0 -85 60.5 -144t144.5 -59q83 0 143.5 59t60.5 144q0 83 -61 144t-143 61q-83 0 -144 -61t-61 -144z" />
<glyph unicode="&#xa8;" horiz-adv-x="960" d="M131 1360q0 50 37 86.5t88 36.5q50 0 86.5 -36.5t36.5 -86.5q0 -51 -36.5 -87t-86.5 -36q-51 0 -88 36t-37 87zM588 1360q0 50 36 86.5t87 36.5t87 -36.5t36 -86.5q0 -51 -36 -87t-87 -36t-87 36t-36 87z" />
<glyph unicode="&#xa9;" horiz-adv-x="1759" d="M86 801q0 330 233 563q232 235 568 235q334 0 563 -235q236 -230 236 -563q0 -335 -236 -568t-563 -233q-335 0 -568 233q-233 230 -233 568zM248 803q0 -267 184 -451q187 -184 451 -184q267 0 448 184q187 187 187 451q0 261 -187 448q-184 187 -448 187t-451 -187 q-184 -187 -184 -448zM328 803q0 227 164 391q159 164 391 164q212 0 362 -135q35 -35 35 -80t-29 -75t-73 -30q-40 0 -68 25q-102 88 -227 88q-142 0 -245 -104t-103 -244q0 -145 101 -246.5t247 -101.5q130 0 227 84q18 18 66 22q44 0 73 -30.5t29 -73.5q0 -50 -33 -76 q-150 -135 -362 -135q-227 0 -391 164t-164 393z" />
<glyph unicode="&#xaa;" horiz-adv-x="960" d="M76 1167q0 166 120 288t287 122t288.5 -122t121.5 -288v-303q0 -44 -31 -74t-74 -30q-44 0 -75 31l-19 24q-94 -55 -211 -55q-167 0 -287 120t-120 287zM285 1167q0 -83 57.5 -140.5t140.5 -57.5t141 58t58 140t-58.5 140.5t-140.5 58.5t-140 -58.5t-58 -140.5z" />
<glyph unicode="&#xab;" horiz-adv-x="960" d="M76 559q0 25 12 49l223 447q26 63 97 63q44 0 74 -29t30 -73q0 -29 -8 -45l-205 -412l205 -412q8 -16 8 -43q0 -43 -30 -73.5t-74 -30.5q-62 0 -97 63l-221 443q-14 25 -14 53zM459 559q0 25 12 49l223 447q26 63 97 63q44 0 74 -29t30 -73q0 -25 -10 -45l-205 -412 l205 -412q10 -20 10 -43q0 -43 -30.5 -73.5t-73.5 -30.5q-30 0 -57 16.5t-40 46.5l-221 443q-14 25 -14 53z" />
<glyph unicode="&#xac;" horiz-adv-x="1120" d="M78 1016q0 43 30.5 73.5t73.5 30.5h758q44 0 75.5 -30.5t31.5 -73.5v-303q0 -44 -31.5 -75.5t-75.5 -31.5q-41 0 -71.5 31.5t-30.5 75.5v198h-656q-44 0 -74 30.5t-30 74.5z" />
<glyph unicode="&#xad;" horiz-adv-x="800" d="M74 559q0 44 30 74.5t74 30.5h457q44 0 73 -30t29 -75q0 -44 -29 -73t-73 -29h-457q-44 0 -74 29t-30 73z" />
<glyph unicode="&#xae;" horiz-adv-x="1759" d="M86 803q0 330 233 563q233 236 570 236q333 0 563 -236q236 -230 236 -563q0 -334 -236 -567q-236 -236 -563 -236q-334 0 -570 236q-233 230 -233 567zM252 805q0 -265 184 -449t449 -184t446 184q185 188 185 449q0 259 -185 444q-184 187 -446 187t-449 -187 q-184 -184 -184 -444zM559 365v895q0 32 23.5 54.5t56.5 22.5h250q131 0 228 -96t97 -229q0 -183 -163 -285l198 -319q17 -24 17 -43q0 -31 -24.5 -55.5t-53.5 -24.5q-47 0 -70 39l-223 360h-178v-319q0 -32 -23.5 -56t-54.5 -24t-55.5 24.5t-24.5 55.5zM717 840h172 q69 0 119.5 51t50.5 121q0 68 -50.5 119t-119.5 51h-172v-342z" />
<glyph unicode="&#xaf;" horiz-adv-x="1120" d="M78 1776q0 44 30 73t74 29h758q45 0 76 -29t31 -73t-31.5 -74.5t-75.5 -30.5h-758q-44 0 -74 30.5t-30 74.5z" />
<glyph unicode="&#xb0;" horiz-adv-x="960" d="M76 1167q0 166 120 288t287 122t288.5 -122t121.5 -288q0 -167 -121 -287t-289 -120q-167 0 -287 120t-120 287zM285 1167q0 -83 57.5 -140.5t140.5 -57.5t141 58t58 140t-58.5 140.5t-140.5 58.5t-140 -58.5t-58 -140.5z" />
<glyph unicode="&#xb1;" horiz-adv-x="1120" d="M78 104q0 44 30 74.5t74 30.5h760q44 0 74.5 -30.5t30.5 -74.5t-30.5 -74t-74.5 -30h-760q-44 0 -74 30t-30 74zM78 788q0 44 30 74.5t74 30.5h275v274q0 43 30.5 74t73.5 31q44 0 74.5 -31t30.5 -74v-274h274q43 0 75 -31.5t32 -75.5q0 -42 -32 -73t-75 -31h-274v-274 q0 -44 -30.5 -74.5t-74.5 -30.5t-74 30.5t-30 74.5v274h-275q-44 0 -74 31t-30 75z" />
<glyph unicode="&#xb2;" horiz-adv-x="638" d="M72 856q0 28 16 47l322 354q36 36 36 89q0 49 -36 85.5t-84 36.5q-51 0 -87 -36t-36 -86q0 -26 -20 -46t-46 -20q-28 0 -46.5 19.5t-18.5 46.5q0 105 75 179t179 74t179 -74t75 -179q0 -102 -74 -179l-219 -243h227q26 0 46 -21t20 -47q0 -28 -19.5 -46.5t-46.5 -18.5 h-377q-29 0 -47 18t-18 47z" />
<glyph unicode="&#xb3;" horiz-adv-x="638" d="M72 1042q0 29 18 47.5t47 18.5q27 0 47.5 -19t20.5 -47q0 -52 35 -87t88 -35q51 0 87 35.5t36 86.5q0 50 -36.5 86.5t-86.5 36.5q-29 0 -48.5 18.5t-19.5 47.5q0 27 19.5 47t48.5 20q35 0 59.5 24.5t24.5 59.5q0 37 -24.5 61.5t-59.5 24.5t-60.5 -25.5t-25.5 -60.5 q0 -26 -20 -45.5t-46 -19.5q-29 0 -47 19t-18 46q0 90 64.5 155t152.5 65t152.5 -66.5t64.5 -153.5q0 -79 -53 -145q45 -31 68.5 -84t23.5 -111q0 -104 -76 -180t-180 -76q-105 0 -180.5 75.5t-75.5 180.5z" />
<glyph unicode="&#xb4;" horiz-adv-x="559" d="M104 1298q0 42 25 70l201 201q35 30 73 30q44 0 74.5 -31t30.5 -75q0 -43 -29 -72l-198 -198q-29 -29 -72 -29q-44 0 -74.5 30t-30.5 74z" />
<glyph unicode="&#xb5;" horiz-adv-x="1200" d="M80 -375v1391q0 43 29 73.5t73 30.5t75.5 -30.5t31.5 -73.5v-494q0 -130 91 -221.5t220 -91.5t221 92t92 221v494q0 43 31 73.5t74 30.5t73.5 -30.5t30.5 -73.5v-912q0 -43 -30.5 -73.5t-73.5 -30.5q-44 0 -73.5 29.5t-31.5 72.5q-127 -102 -313 -102q-179 0 -311 102 v-477q0 -43 -31.5 -73.5t-75.5 -30.5t-73 30t-29 74z" />
<glyph unicode="&#xb6;" horiz-adv-x="1120" d="M78 1190q0 166 120 287.5t287 121.5h455q44 0 75.5 -31t31.5 -75q0 -35 -21.5 -62.5t-54.5 -35.5v-1291q0 -43 -31.5 -73.5t-75.5 -30.5q-41 0 -71.5 30.5t-30.5 73.5v1287h-96v-1287q0 -43 -30.5 -73.5t-74.5 -30.5q-43 0 -73.5 30.5t-30.5 73.5v678q-157 12 -268 131 t-111 277z" />
<glyph unicode="&#xb7;" horiz-adv-x="399" d="M59 750q0 60 41 101.5t101 41.5t100.5 -41.5t40.5 -101.5t-40.5 -101t-100.5 -41t-101 41t-41 101z" />
<glyph unicode="&#xb8;" horiz-adv-x="638" d="M72 -307q0 43 30 73.5t74 30.5q26 0 55 -16l72 -45q12 -6 25 -6q47 0 47 22t-45 25q-47 0 -81.5 35t-23.5 84l39 139q6 21 29 47q32 29 74 29q44 0 73 -31t29 -76q0 -14 -2 -22l-8 -35q125 -73 125 -199q0 -98 -76 -162q-74 -65 -180 -65q-64 0 -123 30l-86 54 q-47 38 -47 88z" />
<glyph unicode="&#xb9;" horiz-adv-x="479" d="M106 1495q0 41 44 64l114 38q6 2 23 2q26 0 45.5 -18.5t19.5 -46.5v-680q0 -28 -19.5 -47t-45.5 -19q-27 0 -47.5 19t-20.5 47v590l-20 -10q-12 -4 -27 -4q-29 0 -47.5 18t-18.5 47z" />
<glyph unicode="&#xba;" horiz-adv-x="638" d="M72 1194q0 192 67 298.5t189 106.5q118 0 186 -107.5t68 -297.5t-68 -298t-186 -108q-122 0 -189 107t-67 299zM205 1194q0 -178 63 -250l-2 2q24 -24 62 -24q59 0 90 75t31 197q0 180 -64 250v-2q-20 26 -57 26q-59 0 -91 -77t-32 -197z" />
<glyph unicode="&#xbb;" horiz-adv-x="960" d="M76 1016q2 44 31 73t73 29q70 0 96 -63l224 -447q12 -24 12 -49q0 -28 -14 -53l-222 -443q-28 -63 -96 -63q-44 0 -73 30.5t-29 73.5q0 27 8 43l205 412l-205 412q-6 13 -10 45zM459 104q0 23 10 43l205 412l-205 412q-10 20 -10 45q0 44 30 73t74 29q70 0 96 -63 l224 -447q12 -24 12 -49q0 -28 -14 -53l-222 -443q-35 -63 -96 -63q-43 0 -73.5 30.5t-30.5 73.5z" />
<glyph unicode="&#xbc;" horiz-adv-x="1439" d="M82 1481q0 20 12 39t31 26l141 49q16 4 27 4q31 0 52.5 -21t21.5 -52v-821q0 -31 -21.5 -52.5t-52.5 -21.5q-32 0 -54 21.5t-22 52.5v716l-35 -10q-20 -4 -26 -4q-31 0 -52.5 21t-21.5 53zM158 104q0 36 14 56l934 1399q27 40 84 40q43 0 73.5 -30.5t30.5 -73.5 q0 -28 -16 -57l-926 -1387q-36 -51 -90 -51q-43 0 -73.5 30.5t-30.5 73.5zM659 301q0 25 15 43l407 594q22 31 62 31q32 0 53 -21.5t21 -52.5v-518h63q31 0 52.5 -22t21.5 -54q0 -31 -21.5 -52.5t-52.5 -21.5h-63v-153q0 -31 -21 -52.5t-53 -21.5t-53 21.5t-21 52.5v153 h-336q-32 0 -53 21.5t-21 52.5zM874 377h195v280z" />
<glyph unicode="&#xbd;" horiz-adv-x="1599" d="M82 1481q0 20 12 39t31 26l141 49q16 4 27 4q31 0 52.5 -21t21.5 -52v-821q0 -31 -21.5 -52.5t-52.5 -21.5q-32 0 -54 21.5t-22 52.5v716l-35 -10q-20 -4 -26 -4q-31 0 -52.5 21t-21.5 53zM158 104q0 36 14 56l934 1399q27 40 84 40q43 0 73.5 -30.5t30.5 -73.5 q0 -28 -16 -57l-926 -1387q-36 -51 -90 -51q-43 0 -73.5 30.5t-30.5 73.5zM903 74q0 30 21 51l389 430q47 47 47 113q0 63 -46.5 108t-109.5 45t-108 -45t-45 -108q0 -32 -21 -53t-53 -21t-53 21t-21 53q0 124 88.5 212.5t212.5 88.5q122 0 212.5 -90.5t90.5 -210.5 q0 -119 -88 -213l-274 -308h289q30 0 51.5 -20.5t21.5 -52.5q0 -30 -21.5 -52t-51.5 -22h-457q-32 0 -53 21.5t-21 52.5z" />
<glyph unicode="&#xbe;" horiz-adv-x="1599" d="M84 936q0 31 21.5 52.5t52.5 21.5q32 0 52.5 -21.5t20.5 -52.5q0 -64 44.5 -109t109.5 -45q62 0 107 45.5t45 108.5q0 64 -45 109t-107 45q-32 0 -53 20.5t-21 52.5q0 30 21 52t53 22q43 0 76 31t33 75t-34 76.5t-75 32.5q-43 0 -76 -32.5t-33 -76.5q0 -29 -22 -51 t-51 -22q-31 0 -52.5 21t-21.5 52q0 104 76 180t180 76t180 -76t76 -180q0 -98 -68 -172q57 -57 85 -111.5t28 -123.5q0 -123 -89 -212t-212 -89q-125 0 -213 87.5t-88 213.5zM311 104q0 32 17 56l932 1399q27 40 83 40q43 0 74 -30.5t31 -73.5q0 -28 -16 -57l-926 -1387 q-36 -51 -90 -51q-43 0 -74 30.5t-31 73.5zM811 301q0 26 14 43l410 594q22 31 61 31q31 0 52.5 -21.5t21.5 -52.5v-518h64q31 0 52 -22t21 -54q0 -31 -21 -52.5t-52 -21.5h-64v-153q0 -31 -21.5 -52.5t-52.5 -21.5q-32 0 -52.5 21.5t-20.5 52.5v153h-336q-32 0 -54 21.5 t-22 52.5zM1028 377h195v280z" />
<glyph unicode="&#xbf;" horiz-adv-x="1120" d="M78 4q0 201 143 344l158 146q80 80 80 194q0 44 30 74.5t74 30.5t74.5 -30.5t30.5 -74.5q0 -200 -144 -344l-157 -145q-80 -83 -80 -195q0 -113 81 -193.5t195 -80.5q113 0 194 79.5t81 194.5q0 43 30.5 74t73.5 31q44 0 74.5 -30.5t30.5 -74.5q0 -131 -66 -242.5 t-177.5 -176t-240.5 -64.5q-98 0 -188 39t-155 104t-103.5 154t-38.5 186zM420 977q0 60 41.5 100.5t101.5 40.5q58 0 100 -41t42 -100t-42 -100t-100 -41q-60 0 -101.5 40.5t-41.5 100.5z" />
<glyph unicode="&#xc0;" horiz-adv-x="1439" d="M78 106q0 21 10 48l535 1374q30 71 100 71q73 0 100 -71l537 -1378q8 -19 8 -44q0 -44 -31 -75t-75 -31q-43 0 -74 31q-15 15 -25 35l-184 475h-512l-186 -475q-10 -20 -25 -35q-31 -31 -74 -31q-44 0 -74 31t-30 75zM444 1972q0 45 29.5 76t73.5 31q40 0 76 -31 l198 -201q27 -27 27 -69q0 -44 -30.5 -74.5t-74.5 -30.5q-42 0 -71 29l-201 199q-27 27 -27 71zM549 752h348l-174 448z" />
<glyph unicode="&#xc1;" horiz-adv-x="1439" d="M78 106q0 21 10 48l535 1374q30 71 100 71q73 0 100 -71l537 -1378q8 -19 8 -44q0 -44 -31 -75t-75 -31q-43 0 -74 31q-15 15 -25 35l-184 475h-512l-186 -475q-10 -20 -25 -35q-31 -31 -74 -31q-44 0 -74 31t-30 75zM549 752h348l-174 448zM612 1778q0 41 25 69l201 201 q36 31 73 31q44 0 74.5 -31.5t30.5 -75.5q0 -42 -29 -71l-199 -199q-29 -29 -71 -29q-44 0 -74.5 30.5t-30.5 74.5z" />
<glyph unicode="&#xc2;" horiz-adv-x="1439" d="M78 106q0 21 10 48l535 1374q30 71 100 71q73 0 100 -71l537 -1378q8 -19 8 -44q0 -44 -31 -75t-75 -31q-43 0 -74 31q-15 15 -25 35l-184 475h-512l-186 -475q-10 -20 -25 -35q-31 -31 -74 -31q-44 0 -74 31t-30 75zM383 1823q0 53 49 90l230 149q27 17 53 17 q28 0 55 -17l227 -149q50 -41 50 -90q0 -44 -29.5 -74.5t-73.5 -30.5q-29 0 -67 23l-162 106l-162 -106q-30 -23 -66 -23q-44 0 -74 30.5t-30 74.5zM549 752h348l-174 448z" />
<glyph unicode="&#xc3;" horiz-adv-x="1439" d="M78 106q0 21 10 48l535 1374q30 71 100 71q73 0 100 -71l537 -1378q8 -19 8 -44q0 -44 -31 -75t-75 -31q-43 0 -74 31q-15 15 -25 35l-184 475h-512l-186 -475q-10 -20 -25 -35q-31 -31 -74 -31q-44 0 -74 31t-30 75zM305 1882q0 46 30 74.5t73 28.5q37 0 81 -33t84 -33 q44 0 74 27q85 82 219 82q53 0 112 -19t105.5 -59.5t46.5 -91.5q0 -44 -30.5 -74.5t-73.5 -30.5q-36 0 -80 33t-84 33q-39 0 -74 -27q-88 -82 -219 -82q-54 0 -113 18.5t-105 59.5t-46 94zM549 752h348l-174 448z" />
<glyph unicode="&#xc4;" horiz-adv-x="1439" d="M78 106q0 21 10 48l535 1374q30 71 100 71q73 0 100 -71l537 -1378q8 -19 8 -44q0 -44 -31 -75t-75 -31q-43 0 -74 31q-15 15 -25 35l-184 475h-512l-186 -475q-10 -20 -25 -35q-31 -31 -74 -31q-44 0 -74 31t-30 75zM373 1839q0 50 37 86.5t88 36.5q50 0 86.5 -37 t36.5 -86q0 -51 -36.5 -87t-86.5 -36q-51 0 -88 36t-37 87zM549 752h348l-174 448zM829 1839q0 50 36 86.5t87 36.5t87 -36.5t36 -86.5q0 -51 -36 -87t-87 -36t-87 36t-36 87z" />
<glyph unicode="&#xc5;" horiz-adv-x="1439" d="M78 106q0 21 10 48l535 1374q30 71 100 71q73 0 100 -71l537 -1378q8 -19 8 -44q0 -44 -31 -75t-75 -31q-43 0 -74 31q-15 15 -25 35l-184 475h-512l-186 -475q-10 -20 -25 -35q-31 -31 -74 -31q-44 0 -74 31t-30 75zM500 1858q0 91 64 156t155 65q90 0 154.5 -65.5 t64.5 -155.5q0 -91 -64 -155.5t-155 -64.5t-155 64.5t-64 155.5zM549 752h348l-174 448zM651 1858q0 -26 21 -46t47 -20t45.5 20t19.5 46q0 29 -19 48t-46 19t-47.5 -19.5t-20.5 -47.5z" />
<glyph unicode="&#xc6;" horiz-adv-x="1759" d="M80 106q0 32 14 54l772 1390q27 49 90 49h619q43 0 73.5 -31t30.5 -75q0 -43 -30.5 -73.5t-73.5 -30.5h-512v-560h356q44 0 75.5 -31t31.5 -75t-31.5 -75.5t-75.5 -31.5h-356v-403h512q43 0 73.5 -31.5t30.5 -75.5t-30.5 -75t-73.5 -31h-619q-44 0 -74 31t-30 75v510 h-260l-318 -569q-30 -47 -88 -47q-44 0 -75 31t-31 75zM711 829h141v254z" />
<glyph unicode="&#xc7;" horiz-adv-x="1480" d="M78 801q0 329 233 565q236 233 568 233q283 0 512 -186q28 -28 28 -74q0 -44 -31 -74t-75 -30q-37 0 -74 29q-156 125 -360 125q-243 0 -418 -175q-170 -170 -170 -413q0 -246 170 -416q172 -172 418 -172q210 0 366 129q27 15 64 18q43 0 73.5 -31t30.5 -75 q0 -43 -33 -76q-224 -178 -501 -178q-332 0 -568 233q-233 236 -233 568zM498 -307q0 43 30 73.5t74 30.5q26 0 55 -16l72 -45q12 -6 25 -6q47 0 47 22t-45 25q-47 0 -81.5 35t-23.5 84l39 139q6 21 29 47q32 29 74 29q44 0 73 -31t29 -76q0 -14 -2 -22l-8 -35 q125 -73 125 -199q0 -98 -76 -162q-74 -65 -180 -65q-64 0 -123 30l-86 54q-47 38 -47 88z" />
<glyph unicode="&#xc8;" d="M76 106v1387q0 44 31 75t75 31h926q43 0 73.5 -31t30.5 -75q0 -43 -30.5 -73.5t-73.5 -30.5h-819v-484h588q43 0 73.5 -30.5t30.5 -73.5q0 -44 -30.5 -75.5t-73.5 -31.5h-588v-481h819q42 0 73 -32t31 -75q0 -44 -30.5 -75t-73.5 -31h-926q-44 0 -75 31t-31 75zM367 1972 q0 45 29 76t73 31q40 0 76 -31l198 -201q27 -27 27 -69q0 -44 -30 -74.5t-74 -30.5q-43 0 -72 29l-201 199q-26 26 -26 71z" />
<glyph unicode="&#xc9;" d="M76 106v1387q0 44 31 75t75 31h926q43 0 73.5 -31t30.5 -75q0 -43 -30.5 -73.5t-73.5 -30.5h-819v-484h588q43 0 73.5 -30.5t30.5 -73.5q0 -44 -30.5 -75.5t-73.5 -31.5h-588v-481h819q42 0 73 -32t31 -75q0 -44 -30.5 -75t-73.5 -31h-926q-44 0 -75 31t-31 75zM532 1778 q0 41 25 69l201 201q36 31 73 31q44 0 74.5 -31.5t30.5 -75.5q0 -42 -29 -71l-198 -199q-29 -29 -72 -29q-44 0 -74.5 30.5t-30.5 74.5z" />
<glyph unicode="&#xca;" d="M76 106v1387q0 44 31 75t75 31h926q43 0 73.5 -31t30.5 -75q0 -43 -30.5 -73.5t-73.5 -30.5h-819v-484h588q43 0 73.5 -30.5t30.5 -73.5q0 -44 -30.5 -75.5t-73.5 -31.5h-588v-481h819q42 0 73 -32t31 -75q0 -44 -30.5 -75t-73.5 -31h-926q-44 0 -75 31t-31 75zM303 1823 q0 53 49 90l230 149q27 17 53 17q28 0 55 -17l228 -149q49 -40 49 -90q0 -44 -29.5 -74.5t-73.5 -30.5q-29 0 -67 23l-162 106l-162 -106q-30 -23 -65 -23q-44 0 -74.5 30.5t-30.5 74.5z" />
<glyph unicode="&#xcb;" d="M76 106v1387q0 44 31 75t75 31h926q43 0 73.5 -31t30.5 -75q0 -43 -30.5 -73.5t-73.5 -30.5h-819v-484h588q43 0 73.5 -30.5t30.5 -73.5q0 -44 -30.5 -75.5t-73.5 -31.5h-588v-481h819q42 0 73 -32t31 -75q0 -44 -30.5 -75t-73.5 -31h-926q-44 0 -75 31t-31 75zM295 1839 q0 50 37 86.5t88 36.5q50 0 86.5 -37t36.5 -86q0 -51 -36.5 -87t-86.5 -36q-51 0 -88 36t-37 87zM752 1839q0 50 35.5 86.5t86.5 36.5t87 -36.5t36 -86.5q0 -51 -36 -87t-87 -36t-86.5 36t-35.5 87z" />
<glyph unicode="&#xcc;" horiz-adv-x="479" d="M-2 1972q0 45 29 76t73 31q40 0 76 -31l199 -201q26 -26 26 -69q0 -44 -30 -74.5t-74 -30.5q-43 0 -72 29l-200 199q-27 27 -27 71zM137 106v1387q0 44 32 75t75 31q44 0 75 -31t31 -75v-1387q0 -44 -31 -75t-75 -31q-43 0 -75 31t-32 75z" />
<glyph unicode="&#xcd;" horiz-adv-x="479" d="M72 1778q0 42 24 69l201 201q36 31 74 31q44 0 74 -31t30 -76q0 -42 -29 -71l-198 -199q-29 -29 -72 -29q-44 0 -74 30.5t-30 74.5zM137 106v1387q0 44 32 75t75 31q44 0 75 -31t31 -75v-1387q0 -44 -31 -75t-75 -31q-43 0 -75 31t-32 75z" />
<glyph unicode="&#xce;" horiz-adv-x="479" d="M-84 1823q0 53 49 90l230 149q27 17 53 17q28 0 55 -17l227 -149q50 -41 50 -90q0 -44 -29.5 -74.5t-73.5 -30.5q-29 0 -67 23l-162 106l-162 -106q-30 -23 -66 -23q-44 0 -74 30.5t-30 74.5zM137 106v1387q0 44 32 75t75 31q44 0 75 -31t31 -75v-1387q0 -44 -31 -75 t-75 -31q-43 0 -75 31t-32 75z" />
<glyph unicode="&#xcf;" horiz-adv-x="479" d="M-104 1839q0 50 36.5 86.5t87.5 36.5q50 0 86.5 -37t36.5 -86q0 -51 -36.5 -87t-86.5 -36q-51 0 -87.5 36t-36.5 87zM137 106v1387q0 44 32 75t75 31q44 0 75 -31t31 -75v-1387q0 -44 -31 -75t-75 -31q-43 0 -75 31t-32 75zM352 1839q0 50 36 86.5t87 36.5t87 -36.5 t36 -86.5q0 -51 -36 -87t-87 -36t-87 36t-36 87z" />
<glyph unicode="&#xd0;" horiz-adv-x="1519" d="M0 801q0 43 31 73.5t75 30.5h123v588q0 43 32.5 74.5t74.5 31.5h309q329 0 565 -233q236 -239 236 -565q0 -332 -236 -568q-233 -233 -565 -233h-309q-42 0 -74.5 31.5t-32.5 74.5v588h-123q-44 0 -75 31t-31 76zM442 213h203q244 0 416 172t172 416q0 241 -172 413 q-175 175 -416 175h-203v-484h281q44 0 74 -30t30 -74q0 -45 -30.5 -76t-73.5 -31h-281v-481z" />
<glyph unicode="&#xd1;" horiz-adv-x="1439" d="M78 106v1387q0 44 30 75t74 31q50 0 82 -38l893 -1147v1079q0 44 31.5 75t75.5 31q43 0 73.5 -31t30.5 -75v-1387q0 -44 -30.5 -75t-73.5 -31q-48 0 -82 37l-893 1147v-1078q0 -44 -31.5 -75t-75.5 -31q-43 0 -73.5 31t-30.5 75zM305 1882q0 46 30 74.5t73 28.5 q37 0 81 -33t84 -33q44 0 74 27q85 82 219 82q53 0 112 -19t105.5 -59.5t46.5 -91.5q0 -44 -30.5 -74.5t-73.5 -30.5q-36 0 -80 33t-84 33q-39 0 -74 -27q-88 -82 -219 -82q-54 0 -113 18.5t-105 59.5t-46 94z" />
<glyph unicode="&#xd2;" horiz-adv-x="1759" d="M80 801q0 329 233 565q236 233 568 233q329 0 565 -233q233 -236 233 -565q0 -332 -233 -568q-236 -233 -565 -233q-332 0 -568 233q-233 236 -233 568zM293 801q0 -247 172 -416q172 -172 416 -172q243 0 415 172q172 169 172 416q0 241 -172 413q-175 175 -415 175 q-244 0 -416 -175q-172 -169 -172 -413zM684 1972q0 45 29 76t73 31q40 0 76 -31l199 -201q26 -26 26 -69q0 -44 -30 -74.5t-74 -30.5q-43 0 -72 29l-200 199q-27 27 -27 71z" />
<glyph unicode="&#xd3;" horiz-adv-x="1759" d="M80 801q0 329 233 565q236 233 568 233q329 0 565 -233q233 -236 233 -565q0 -332 -233 -568q-236 -233 -565 -233q-332 0 -568 233q-233 236 -233 568zM293 801q0 -247 172 -416q172 -172 416 -172q243 0 415 172q172 169 172 416q0 241 -172 413q-175 175 -415 175 q-244 0 -416 -175q-172 -169 -172 -413zM702 1778q0 41 25 69l201 201q36 31 73 31q44 0 74.5 -31.5t30.5 -75.5q0 -42 -29 -71l-198 -199q-29 -29 -72 -29q-44 0 -74.5 30.5t-30.5 74.5z" />
<glyph unicode="&#xd4;" horiz-adv-x="1759" d="M80 801q0 329 233 565q236 233 568 233q329 0 565 -233q233 -236 233 -565q0 -332 -233 -568q-236 -233 -565 -233q-332 0 -568 233q-233 236 -233 568zM293 801q0 -247 172 -416q172 -172 416 -172q243 0 415 172q172 169 172 416q0 241 -172 413q-175 175 -415 175 q-244 0 -416 -175q-172 -169 -172 -413zM543 1823q0 53 49 90l229 149q27 17 53 17q29 0 56 -17l227 -149q49 -40 49 -90q0 -45 -29 -75t-73 -30q-30 0 -68 23l-162 106l-161 -106q-30 -23 -66 -23q-44 0 -74 30.5t-30 74.5z" />
<glyph unicode="&#xd5;" horiz-adv-x="1759" d="M80 801q0 329 233 565q236 233 568 233q329 0 565 -233q233 -236 233 -565q0 -332 -233 -568q-236 -233 -565 -233q-332 0 -568 233q-233 236 -233 568zM293 801q0 -247 172 -416q172 -172 416 -172q243 0 415 172q172 169 172 416q0 241 -172 413q-175 175 -415 175 q-244 0 -416 -175q-172 -169 -172 -413zM465 1882q0 46 29.5 74.5t72.5 28.5q38 0 82 -33t84 -33q44 0 74 27q85 82 219 82q53 0 112 -19t105.5 -59.5t46.5 -91.5q0 -44 -30.5 -74.5t-73.5 -30.5q-36 0 -80 33t-84 33t-74 -27q-88 -82 -219 -82q-54 0 -113 18.5t-105 59.5 t-46 94z" />
<glyph unicode="&#xd6;" horiz-adv-x="1759" d="M80 801q0 329 233 565q236 233 568 233q329 0 565 -233q233 -236 233 -565q0 -332 -233 -568q-236 -233 -565 -233q-332 0 -568 233q-233 236 -233 568zM293 801q0 -247 172 -416q172 -172 416 -172q243 0 415 172q172 169 172 416q0 241 -172 413q-175 175 -415 175 q-244 0 -416 -175q-172 -169 -172 -413zM532 1839q0 50 37 86.5t88 36.5q49 0 86 -37t37 -86q0 -51 -36.5 -87t-86.5 -36q-51 0 -88 36t-37 87zM989 1839q0 50 36 86.5t87 36.5t87 -36.5t36 -86.5q0 -51 -36 -87t-87 -36t-87 36t-36 87z" />
<glyph unicode="&#xd7;" horiz-adv-x="960" d="M76 408q0 45 28 73l232 232l-232 229q-28 36 -28 74q0 43 30.5 73.5t73.5 30.5q42 0 76 -30l227 -230l230 230q30 30 75 30q43 0 74 -30.5t31 -73.5q0 -38 -31 -74l-229 -229l229 -232q31 -31 31 -73q0 -43 -31 -74t-74 -31q-44 0 -73 29l-232 231l-231 -231 q-29 -29 -72 -29q-44 0 -74 30.5t-30 74.5z" />
<glyph unicode="&#xd8;" horiz-adv-x="1759" d="M80 106q0 43 29 72l135 135q-164 205 -164 488q0 329 233 565q236 233 568 233q282 0 485 -163l133 133q30 30 76 30q43 0 73.5 -31t30.5 -75q0 -38 -22 -66l-141 -141q163 -203 163 -485q0 -332 -233 -568q-236 -233 -565 -233q-283 0 -488 164l-133 -133 q-31 -31 -74 -31q-44 0 -75 31t-31 75zM293 801q0 -190 102 -334l819 817q-144 105 -333 105q-244 0 -416 -175q-172 -169 -172 -413zM547 315q144 -102 334 -102q243 0 415 172q172 169 172 416q0 185 -104 334z" />
<glyph unicode="&#xd9;" d="M76 569v924q0 44 31 75t75 31q43 0 75 -31t32 -75v-924q0 -148 103 -252t251 -104q149 0 253.5 104t104.5 252v924q0 44 31.5 75t75.5 31q43 0 73.5 -31t30.5 -75v-924q0 -153 -76.5 -284t-207.5 -208t-285 -77q-237 0 -399 168q-168 165 -168 401zM365 1972q0 45 29 76 t73 31q40 0 76 -31l198 -201q27 -27 27 -69q0 -44 -30 -74.5t-74 -30.5q-43 0 -72 29l-201 199q-26 26 -26 71z" />
<glyph unicode="&#xda;" d="M76 569v924q0 44 31 75t75 31q43 0 75 -31t32 -75v-924q0 -148 103 -252t251 -104q149 0 253.5 104t104.5 252v924q0 44 31.5 75t75.5 31q43 0 73.5 -31t30.5 -75v-924q0 -153 -76.5 -284t-207.5 -208t-285 -77q-237 0 -399 168q-168 165 -168 401zM530 1778q0 41 25 69 l201 201q36 31 73 31q44 0 74.5 -31.5t30.5 -75.5q0 -42 -29 -71l-198 -199q-29 -29 -72 -29q-44 0 -74.5 30.5t-30.5 74.5z" />
<glyph unicode="&#xdb;" d="M76 569v924q0 44 31 75t75 31q43 0 75 -31t32 -75v-924q0 -148 103 -252t251 -104q149 0 253.5 104t104.5 252v924q0 44 31.5 75t75.5 31q43 0 73.5 -31t30.5 -75v-924q0 -153 -76.5 -284t-207.5 -208t-285 -77q-237 0 -399 168q-168 165 -168 401zM303 1823q0 53 49 90 l230 149q27 17 53 17q28 0 55 -17l228 -149q49 -40 49 -90q0 -44 -29.5 -74.5t-73.5 -30.5q-29 0 -67 23l-162 106l-162 -106q-30 -23 -65 -23q-44 0 -74.5 30.5t-30.5 74.5z" />
<glyph unicode="&#xdc;" d="M76 569v924q0 44 31 75t75 31q43 0 75 -31t32 -75v-924q0 -148 103 -252t251 -104q149 0 253.5 104t104.5 252v924q0 44 31.5 75t75.5 31q43 0 73.5 -31t30.5 -75v-924q0 -153 -76.5 -284t-207.5 -208t-285 -77q-237 0 -399 168q-168 165 -168 401zM293 1839 q0 50 37 86.5t88 36.5q50 0 86.5 -37t36.5 -86q0 -51 -36.5 -87t-86.5 -36q-51 0 -88 36t-37 87zM750 1839q0 50 35.5 86.5t86.5 36.5t87 -36.5t36 -86.5q0 -51 -36 -87t-87 -36t-86.5 36t-35.5 87z" />
<glyph unicode="&#xdd;" d="M76 1493q0 44 31 75t75 31q56 0 86 -43l375 -563l377 563q30 43 88 43q43 0 73.5 -31t30.5 -75q0 -33 -16 -59l-446 -666v-662q0 -44 -31.5 -75t-75.5 -31q-43 0 -73.5 31t-30.5 75v662l-447 666q-16 29 -16 59zM530 1778q0 41 25 69l201 201q36 31 73 31 q44 0 74.5 -31.5t30.5 -75.5q0 -42 -29 -71l-198 -199q-29 -29 -72 -29q-44 0 -74.5 30.5t-30.5 74.5z" />
<glyph unicode="&#xde;" d="M76 106v1387q0 44 31 75t75 31t75.5 -31t31.5 -75v-201h434q131 0 243.5 -66.5t179 -179.5t66.5 -245q0 -133 -67 -247.5t-179.5 -180.5t-242.5 -66h-434v-201q0 -44 -31.5 -75t-75.5 -31t-75 31t-31 75zM289 520h434q116 0 197 82t81 199q0 116 -82 197t-196 81h-434 v-559z" />
<glyph unicode="&#xdf;" horiz-adv-x="1120" d="M78 104v1080q0 111 56 206t151.5 151t206.5 56q170 0 291.5 -122t121.5 -291q0 -154 -94 -264q-18 -24 -18 -58q0 -58 38 -78q107 -55 168.5 -155t61.5 -215q0 -110 -56.5 -206t-152.5 -152t-207 -56q-173 0 -293 123q-33 33 -33 76t31 73.5t76 30.5q39 0 78 -31 q59 -59 141 -59t142.5 59t60.5 142t-60 143q-17 14 -61.5 47t-58.5 47q-90 90 -90 213q0 112 77 201q37 46 37 119q0 82 -59 142t-141 60q-84 0 -142.5 -58t-58.5 -144v-1080q0 -43 -32.5 -73.5t-76.5 -30.5q-43 0 -73.5 30.5t-30.5 73.5z" />
<glyph unicode="&#xe0;" d="M80 559q0 233 164 397t397 164q228 0 395 -164q164 -164 164 -397v-455q0 -43 -30.5 -73.5t-73.5 -30.5t-74 30.5t-31 73.5v21q-152 -125 -350 -125q-233 0 -397 164t-164 395zM289 559q0 -144 102 -247t250 -103q144 0 247 103.5t103 246.5q0 145 -102.5 248.5 t-247.5 103.5q-148 0 -250 -103t-102 -249zM403 1493q0 45 29.5 75.5t73.5 30.5q42 0 76 -30l198 -201q27 -27 27 -70q0 -44 -30.5 -74t-74.5 -30q-42 0 -71 29l-201 198q-27 27 -27 72z" />
<glyph unicode="&#xe1;" d="M80 559q0 233 164 397t397 164q228 0 395 -164q164 -164 164 -397v-455q0 -43 -30.5 -73.5t-73.5 -30.5t-74 30.5t-31 73.5v21q-152 -125 -350 -125q-233 0 -397 164t-164 395zM289 559q0 -144 102 -247t250 -103q144 0 247 103.5t103 246.5q0 145 -102.5 248.5 t-247.5 103.5q-148 0 -250 -103t-102 -249zM481 1298q0 42 25 70l201 201q35 30 73 30q44 0 74.5 -31t30.5 -75q0 -43 -29 -72l-199 -198q-29 -29 -71 -29q-44 0 -74.5 30t-30.5 74z" />
<glyph unicode="&#xe2;" d="M80 559q0 233 164 397t397 164q228 0 395 -164q164 -164 164 -397v-455q0 -43 -30.5 -73.5t-73.5 -30.5t-74 30.5t-31 73.5v21q-152 -125 -350 -125q-233 0 -397 164t-164 395zM289 559q0 -144 102 -247t250 -103q144 0 247 103.5t103 246.5q0 145 -102.5 248.5 t-247.5 103.5q-148 0 -250 -103t-102 -249zM303 1343q0 54 49 91l230 149q26 16 53 16q29 0 55 -16l228 -149q49 -40 49 -91q0 -44 -29.5 -74t-73.5 -30q-29 0 -67 23l-162 106l-162 -106q-30 -23 -65 -23q-44 0 -74.5 30t-30.5 74z" />
<glyph unicode="&#xe3;" d="M80 559q0 233 164 397t397 164q228 0 395 -164q164 -164 164 -397v-455q0 -43 -30.5 -73.5t-73.5 -30.5t-74 30.5t-31 73.5v21q-152 -125 -350 -125q-233 0 -397 164t-164 395zM231 1403q0 46 30 74t73 28q39 0 82 -32q44 -33 84 -33q44 0 73 26q85 82 220 82 q53 0 112 -19t105.5 -59.5t46.5 -91.5q0 -44 -31 -74t-74 -30q-36 0 -80 33q-43 32 -84 32q-40 0 -73 -26q-88 -82 -219 -82q-54 0 -113 18.5t-105.5 59.5t-46.5 94zM289 559q0 -144 102 -247t250 -103q144 0 247 103.5t103 246.5q0 145 -102.5 248.5t-247.5 103.5 q-148 0 -250 -103t-102 -249z" />
<glyph unicode="&#xe4;" d="M80 559q0 233 164 397t397 164q228 0 395 -164q164 -164 164 -397v-455q0 -43 -30.5 -73.5t-73.5 -30.5t-74 30.5t-31 73.5v21q-152 -125 -350 -125q-233 0 -397 164t-164 395zM289 559q0 -144 102 -247t250 -103q144 0 247 103.5t103 246.5q0 145 -102.5 248.5 t-247.5 103.5q-148 0 -250 -103t-102 -249zM293 1360q0 50 37 86.5t88 36.5q50 0 86.5 -36.5t36.5 -86.5q0 -51 -36.5 -87t-86.5 -36q-51 0 -88 36t-37 87zM750 1360q0 50 35.5 86.5t86.5 36.5t87 -36.5t36 -86.5q0 -51 -36 -87t-87 -36t-86.5 36t-35.5 87z" />
<glyph unicode="&#xe5;" d="M80 559q0 233 164 397t397 164q228 0 395 -164q164 -164 164 -397v-455q0 -43 -30.5 -73.5t-73.5 -30.5t-74 30.5t-31 73.5v21q-152 -125 -350 -125q-233 0 -397 164t-164 395zM289 559q0 -144 102 -247t250 -103q144 0 247 103.5t103 246.5q0 145 -102.5 248.5 t-247.5 103.5q-148 0 -250 -103t-102 -249zM420 1378q0 91 64 156t155 65q90 0 154.5 -65.5t64.5 -155.5q0 -91 -64 -155t-155 -64t-155 64t-64 155zM571 1378q0 -26 20.5 -45.5t47.5 -19.5q26 0 46 19.5t20 45.5q0 29 -19.5 48.5t-46.5 19.5t-47.5 -19.5t-20.5 -48.5z" />
<glyph unicode="&#xe6;" horiz-adv-x="2240" d="M92 559q0 233 164 397t395 164q140 0 251 -57.5t206 -175.5q96 118 206.5 175.5t248.5 57.5q230 0 397 -164q164 -164 164 -397q0 -44 -30 -73t-75 -29h-792q32 -113 126.5 -180.5t209.5 -67.5q124 0 223 80q33 26 69 26q43 0 74 -30t31 -74q0 -45 -31 -76 q-156 -135 -366 -135q-202 0 -351 125v-21q0 -43 -30.5 -73.5t-73.5 -30.5t-73.5 30.5t-30.5 73.5v21q-152 -125 -353 -125q-231 0 -395 164t-164 395zM301 559q0 -145 102.5 -247.5t247.5 -102.5q147 0 250 102.5t103 247.5q0 148 -102.5 250t-250.5 102 q-145 0 -247.5 -102.5t-102.5 -249.5zM1227 664h674q-37 111 -129.5 179t-208.5 68q-113 0 -210 -69.5t-126 -177.5z" />
<glyph unicode="&#xe7;" horiz-adv-x="1120" d="M78 559q0 233 164 397t397 164q213 0 365 -137q34 -30 34 -78q0 -44 -29 -74t-73 -30q-39 0 -70 22q-105 88 -227 88q-148 0 -250 -102t-102 -250q0 -145 102.5 -247.5t249.5 -102.5q124 0 227 86q24 19 66 22q44 0 74 -30t30 -74q0 -46 -32 -78q-156 -135 -365 -135 q-233 0 -397 164t-164 395zM309 -307q0 43 30.5 73.5t74.5 30.5q26 0 55 -16l72 -45q12 -6 24 -6q47 0 47 22t-45 25q-47 0 -81 35t-23 84l39 139q6 22 28 47q32 29 74 29q44 0 73.5 -31t29.5 -76q0 -14 -2 -22l-9 -35q125 -73 125 -199q0 -98 -76 -162q-74 -65 -180 -65 q-65 0 -123 30l-86 54q-47 38 -47 88z" />
<glyph unicode="&#xe8;" d="M80 559q0 233 164 397t397 164q228 0 395 -164q164 -164 164 -397q0 -44 -30.5 -73t-73.5 -29h-793q32 -110 126.5 -179t211.5 -69q122 0 221 80q29 23 70 26q44 0 74 -30t30 -74q0 -42 -30 -76q-153 -135 -365 -135q-233 0 -397 164t-164 395zM303 664h674 q-32 109 -127 178t-209 69q-117 0 -211.5 -68.5t-126.5 -178.5zM401 1493q0 45 29.5 75.5t73.5 30.5q42 0 76 -30l198 -201q27 -27 27 -70q0 -44 -30.5 -74t-74.5 -30q-42 0 -71 29l-201 198q-27 27 -27 72z" />
<glyph unicode="&#xe9;" d="M80 559q0 233 164 397t397 164q228 0 395 -164q164 -164 164 -397q0 -44 -30.5 -73t-73.5 -29h-793q32 -110 126.5 -179t211.5 -69q122 0 221 80q29 23 70 26q44 0 74 -30t30 -74q0 -42 -30 -76q-153 -135 -365 -135q-233 0 -397 164t-164 395zM303 664h674 q-32 109 -127 178t-209 69q-117 0 -211.5 -68.5t-126.5 -178.5zM481 1298q0 42 25 70l201 201q35 30 73 30q44 0 74.5 -31t30.5 -75q0 -43 -29 -72l-199 -198q-29 -29 -71 -29q-44 0 -74.5 30t-30.5 74z" />
<glyph unicode="&#xea;" d="M80 559q0 233 164 397t397 164q228 0 395 -164q164 -164 164 -397q0 -44 -30.5 -73t-73.5 -29h-793q32 -110 126.5 -179t211.5 -69q122 0 221 80q29 23 70 26q44 0 74 -30t30 -74q0 -42 -30 -76q-153 -135 -365 -135q-233 0 -397 164t-164 395zM303 664h674 q-32 109 -127 178t-209 69q-117 0 -211.5 -68.5t-126.5 -178.5zM303 1343q0 54 49 91l230 149q26 16 53 16q29 0 55 -16l228 -149q49 -40 49 -91q0 -44 -29.5 -74t-73.5 -30q-29 0 -67 23l-162 106l-162 -106q-30 -23 -65 -23q-44 0 -74.5 30t-30.5 74z" />
<glyph unicode="&#xeb;" d="M80 559q0 233 164 397t397 164q228 0 395 -164q164 -164 164 -397q0 -44 -30.5 -73t-73.5 -29h-793q32 -110 126.5 -179t211.5 -69q122 0 221 80q29 23 70 26q44 0 74 -30t30 -74q0 -42 -30 -76q-153 -135 -365 -135q-233 0 -397 164t-164 395zM293 1360q0 50 37 86.5 t88 36.5q50 0 86.5 -36.5t36.5 -86.5q0 -51 -36.5 -87t-86.5 -36q-51 0 -88 36t-37 87zM303 664h674q-32 109 -127 178t-209 69q-117 0 -211.5 -68.5t-126.5 -178.5zM750 1360q0 50 35.5 86.5t86.5 36.5t87 -36.5t36 -86.5q0 -51 -36 -87t-87 -36t-86.5 36t-35.5 87z" />
<glyph unicode="&#xec;" horiz-adv-x="479" d="M4 1493q0 45 29 75.5t73 30.5q42 0 76 -30l199 -201q27 -27 27 -70q0 -44 -30.5 -74t-74.5 -30q-43 0 -72 29l-200 198q-27 27 -27 72zM137 104v912q0 43 31 73.5t74 30.5t73.5 -30.5t30.5 -73.5v-912q0 -43 -30.5 -73.5t-73.5 -30.5t-74 30.5t-31 73.5z" />
<glyph unicode="&#xed;" horiz-adv-x="479" d="M78 1298q0 43 24 70l201 201q35 30 74 30q44 0 74 -31t30 -75t-28 -72l-199 -198q-29 -29 -72 -29q-44 0 -74 30t-30 74zM137 104v912q0 43 31 73.5t74 30.5t73.5 -30.5t30.5 -73.5v-912q0 -43 -30.5 -73.5t-73.5 -30.5t-74 30.5t-31 73.5z" />
<glyph unicode="&#xee;" horiz-adv-x="559" d="M-51 1343q0 54 49 91l229 149q26 16 54 16q29 0 55 -16l227 -149q49 -40 49 -91q0 -44 -29 -74t-73 -30q-30 0 -68 23l-161 106l-162 -106q-30 -23 -66 -23q-44 0 -74 30t-30 74zM180 104v912q0 43 31 73.5t74 30.5t73.5 -30.5t30.5 -73.5v-912q0 -43 -30.5 -73.5 t-73.5 -30.5t-74 30.5t-31 73.5z" />
<glyph unicode="&#xef;" horiz-adv-x="600" d="M-43 1360q0 50 37 86.5t88 36.5q50 0 86.5 -36.5t36.5 -86.5q0 -51 -36.5 -87t-86.5 -36q-51 0 -88 36t-37 87zM195 104v912q0 43 30.5 73.5t73.5 30.5t73.5 -30.5t30.5 -73.5v-912q0 -43 -30.5 -73.5t-73.5 -30.5t-73.5 30.5t-30.5 73.5zM414 1360q0 50 36 86.5t87 36.5 t86.5 -36.5t35.5 -86.5q0 -51 -35.5 -87t-86.5 -36t-87 36t-36 87z" />
<glyph unicode="&#xf0;" d="M70 567q0 236 166 402q168 168 403 168q35 0 86 -7l-66 115l-110 -61q-23 -10 -45 -10q-65 0 -92 49q-15 24 -15 55q0 27 14 52.5t38 37.5l106 62l-16 26q-9 15 -9 39q0 41 33 74t76 33q51 0 74 -33l22 -33l96 55q22 11 46 11q27 0 53 -14t39 -38q12 -24 12 -55 q0 -28 -13 -53.5t-38 -36.5l-86 -51l293 -512q69 -120 69 -275q0 -236 -168 -401q-169 -166 -399 -166q-234 0 -403 166q-166 169 -166 401zM283 567q0 -147 102.5 -250.5t253.5 -103.5q147 0 250.5 104.5t103.5 249.5q0 147 -103.5 252t-250.5 105q-151 0 -253.5 -104.5 t-102.5 -252.5z" />
<glyph unicode="&#xf1;" horiz-adv-x="1200" d="M80 104v912q0 43 30 73.5t74 30.5q43 0 74 -30.5t31 -71.5q132 102 311 102q140 0 260 -69.5t191 -190t71 -262.5v-494q0 -43 -29.5 -73.5t-72.5 -30.5q-44 0 -75.5 30.5t-31.5 73.5v494q0 128 -92 220.5t-221 92.5q-128 0 -219.5 -92t-91.5 -221v-494q0 -43 -31 -73.5 t-74 -30.5q-44 0 -74 30.5t-30 73.5zM197 1403q0 46 29.5 74t72.5 28q39 0 82 -32q44 -33 84 -33q45 0 74 26q85 82 219 82q53 0 112 -19t105.5 -59.5t46.5 -91.5q0 -44 -30.5 -74t-73.5 -30q-36 0 -80 33q-43 32 -84 32t-74 -26q-88 -82 -219 -82q-54 0 -113 18.5 t-105 59.5t-46 94z" />
<glyph unicode="&#xf2;" d="M80 559q0 233 164 397t397 164q228 0 395 -164q161 -161 164 -397q0 -231 -164 -395q-167 -164 -395 -164q-233 0 -397 164t-164 395zM289 559q0 -144 102 -247t250 -103q144 0 247 103.5t103 246.5q0 145 -102.5 248.5t-247.5 103.5q-148 0 -250 -103t-102 -249z M401 1493q0 45 29.5 75.5t73.5 30.5q42 0 76 -30l198 -201q27 -27 27 -70q0 -44 -30.5 -74t-74.5 -30q-42 0 -71 29l-201 198q-27 27 -27 72z" />
<glyph unicode="&#xf3;" d="M80 559q0 233 164 397t397 164q228 0 395 -164q161 -161 164 -397q0 -231 -164 -395q-167 -164 -395 -164q-233 0 -397 164t-164 395zM289 559q0 -144 102 -247t250 -103q144 0 247 103.5t103 246.5q0 145 -102.5 248.5t-247.5 103.5q-148 0 -250 -103t-102 -249z M481 1298q0 42 25 70l201 201q35 30 73 30q44 0 74.5 -31t30.5 -75q0 -43 -29 -72l-199 -198q-29 -29 -71 -29q-44 0 -74.5 30t-30.5 74z" />
<glyph unicode="&#xf4;" d="M80 559q0 233 164 397t397 164q228 0 395 -164q161 -161 164 -397q0 -231 -164 -395q-167 -164 -395 -164q-233 0 -397 164t-164 395zM289 559q0 -144 102 -247t250 -103q144 0 247 103.5t103 246.5q0 145 -102.5 248.5t-247.5 103.5q-148 0 -250 -103t-102 -249z M303 1343q0 54 49 91l230 149q26 16 53 16q29 0 55 -16l228 -149q49 -40 49 -91q0 -44 -29.5 -74t-73.5 -30q-29 0 -67 23l-162 106l-162 -106q-30 -23 -65 -23q-44 0 -74.5 30t-30.5 74z" />
<glyph unicode="&#xf5;" d="M80 559q0 233 164 397t397 164q228 0 395 -164q161 -161 164 -397q0 -231 -164 -395q-167 -164 -395 -164q-233 0 -397 164t-164 395zM231 1403q0 46 30 74t73 28q39 0 82 -32q44 -33 84 -33q44 0 73 26q85 82 220 82q53 0 112 -19t105.5 -59.5t46.5 -91.5q0 -44 -31 -74 t-74 -30q-36 0 -80 33q-43 32 -84 32q-40 0 -73 -26q-88 -82 -219 -82q-54 0 -113 18.5t-105.5 59.5t-46.5 94zM289 559q0 -144 102 -247t250 -103q144 0 247 103.5t103 246.5q0 145 -102.5 248.5t-247.5 103.5q-148 0 -250 -103t-102 -249z" />
<glyph unicode="&#xf6;" d="M80 559q0 233 164 397t397 164q228 0 395 -164q161 -161 164 -397q0 -231 -164 -395q-167 -164 -395 -164q-233 0 -397 164t-164 395zM289 559q0 -144 102 -247t250 -103q144 0 247 103.5t103 246.5q0 145 -102.5 248.5t-247.5 103.5q-148 0 -250 -103t-102 -249z M293 1360q0 50 37 86.5t88 36.5q50 0 86.5 -36.5t36.5 -86.5q0 -51 -36.5 -87t-86.5 -36q-51 0 -88 36t-37 87zM750 1360q0 50 35.5 86.5t86.5 36.5t87 -36.5t36 -86.5q0 -51 -36 -87t-87 -36t-86.5 36t-35.5 87z" />
<glyph unicode="&#xf7;" horiz-adv-x="960" d="M76 713q0 44 30 73t74 29h608q45 0 75 -29t30 -73t-30.5 -75.5t-74.5 -31.5h-608q-44 0 -74 31t-30 76zM360 428q0 51 36 87t87 36t87 -36t36 -87t-36 -88t-87 -37t-87 37t-36 88zM360 997q0 51 36 87t87 36t87 -36t36 -87q0 -53 -36 -89t-87 -36t-87 36t-36 89z" />
<glyph unicode="&#xf8;" d="M80 104q0 49 29 72l67 70q-96 137 -96 313q0 233 164 397t397 164q175 0 315 -96l64 63q29 33 76 33q43 0 73.5 -30.5t30.5 -73.5q0 -38 -31 -74l-65 -68q96 -140 96 -315q0 -231 -164 -395q-167 -164 -395 -164q-178 0 -315 96l-70 -71q-28 -25 -72 -25 q-43 0 -73.5 30.5t-30.5 73.5zM289 559q0 -93 39 -164l477 475q-65 41 -164 41q-148 0 -250 -103t-102 -249zM475 248q71 -39 166 -39q144 0 247 103.5t103 246.5q0 92 -39 166z" />
<glyph unicode="&#xf9;" horiz-adv-x="1200" d="M80 522v494q0 43 30 73.5t74 30.5q43 0 74 -30.5t31 -73.5v-494q0 -130 91 -221.5t220 -91.5t221 92t92 221v494q0 43 31.5 73.5t75.5 30.5q43 0 72.5 -30.5t29.5 -73.5v-912q0 -43 -30 -73.5t-74 -30.5t-73.5 29.5t-31.5 72.5q-127 -102 -313 -102q-141 0 -261 70.5 t-189.5 191t-69.5 260.5zM391 1493q0 45 29.5 75.5t73.5 30.5q40 0 75 -30l199 -201q27 -27 27 -70q0 -44 -30.5 -74t-74.5 -30q-43 0 -72 29l-200 198q-27 27 -27 72z" />
<glyph unicode="&#xfa;" horiz-adv-x="1200" d="M80 522v494q0 43 30 73.5t74 30.5q43 0 74 -30.5t31 -73.5v-494q0 -130 91 -221.5t220 -91.5t221 92t92 221v494q0 43 31.5 73.5t75.5 30.5q43 0 72.5 -30.5t29.5 -73.5v-912q0 -43 -30 -73.5t-74 -30.5t-73.5 29.5t-31.5 72.5q-127 -102 -313 -102q-141 0 -261 70.5 t-189.5 191t-69.5 260.5zM424 1298q0 42 25 70l200 201q35 30 74 30q44 0 74 -31t30 -75t-28 -72l-199 -198q-29 -29 -72 -29q-44 0 -74 30t-30 74z" />
<glyph unicode="&#xfb;" horiz-adv-x="1200" d="M80 522v494q0 43 30 73.5t74 30.5q43 0 74 -30.5t31 -73.5v-494q0 -130 91 -221.5t220 -91.5t221 92t92 221v494q0 43 31.5 73.5t75.5 30.5q43 0 72.5 -30.5t29.5 -73.5v-912q0 -43 -30 -73.5t-74 -30.5t-73.5 29.5t-31.5 72.5q-127 -102 -313 -102q-141 0 -261 70.5 t-189.5 191t-69.5 260.5zM264 1343q0 54 49 91l230 149q26 16 53 16q29 0 55 -16l228 -149q49 -40 49 -91q0 -44 -29.5 -74t-73.5 -30q-29 0 -67 23l-162 106l-162 -106q-30 -23 -65 -23q-44 0 -74.5 30t-30.5 74z" />
<glyph unicode="&#xfc;" horiz-adv-x="1200" d="M80 522v494q0 43 30 73.5t74 30.5q43 0 74 -30.5t31 -73.5v-494q0 -130 91 -221.5t220 -91.5t221 92t92 221v494q0 43 31.5 73.5t75.5 30.5q43 0 72.5 -30.5t29.5 -73.5v-912q0 -43 -30 -73.5t-74 -30.5t-73.5 29.5t-31.5 72.5q-127 -102 -313 -102q-141 0 -261 70.5 t-189.5 191t-69.5 260.5zM252 1360q0 50 37 86.5t88 36.5q49 0 86 -36.5t37 -86.5q0 -51 -36.5 -87t-86.5 -36q-51 0 -88 36t-37 87zM709 1360q0 50 35.5 86.5t86.5 36.5t87 -36.5t36 -86.5q0 -51 -36 -87t-87 -36t-86.5 36t-35.5 87z" />
<glyph unicode="&#xfd;" horiz-adv-x="1120" d="M78 1016q0 43 30.5 73.5t73.5 30.5q32 0 59 -17.5t40 -51.5l280 -670l283 672q23 67 96 67q44 0 75.5 -30.5t31.5 -73.5q0 -21 -13 -47l-573 -1379q-14 -31 -41.5 -50t-59.5 -19q-44 0 -74 30t-30 74q0 22 10 45l183 434l-361 865q-10 23 -10 47zM451 1298q0 43 24 70 l201 201q34 30 74 30q44 0 74 -31t30 -75q0 -43 -29 -72l-198 -198q-29 -29 -72 -29q-44 0 -74 30t-30 74z" />
<glyph unicode="&#xfe;" d="M80 -375v1870q0 44 30 74t74 30q43 0 74 -30t31 -74v-498q152 125 352 125q228 0 395 -164q164 -164 164 -397q0 -231 -164 -395q-167 -164 -395 -164q-200 0 -352 125v-502q0 -43 -31 -73.5t-74 -30.5q-44 0 -74 30t-30 74zM289 561q0 -144 102 -247t250 -103 q144 0 247 103.5t103 246.5q0 145 -102.5 248.5t-247.5 103.5q-148 0 -250 -103t-102 -249z" />
<glyph unicode="&#xff;" horiz-adv-x="1120" d="M78 1016q0 43 30.5 73.5t73.5 30.5q32 0 59 -17.5t40 -51.5l280 -670l283 672q23 67 96 67q44 0 75.5 -30.5t31.5 -73.5q0 -21 -13 -47l-573 -1379q-14 -31 -41.5 -50t-59.5 -19q-44 0 -74 30t-30 74q0 22 10 45l183 434l-361 865q-10 23 -10 47zM213 1360q0 50 37 86.5 t88 36.5q50 0 86.5 -36.5t36.5 -86.5q0 -51 -36.5 -87t-86.5 -36q-51 0 -88 36t-37 87zM670 1360q0 50 36 86.5t87 36.5t86.5 -36.5t35.5 -86.5q0 -51 -35.5 -87t-86.5 -36t-87 36t-36 87z" />
<glyph unicode="&#x152;" horiz-adv-x="2160" d="M84 801q0 329 233 565q236 233 568 233h1079q44 0 75.5 -31t31.5 -75q0 -43 -31.5 -73.5t-75.5 -30.5h-819v-484h588q44 0 75 -30.5t31 -73.5q0 -46 -31 -77.5t-75 -31.5h-588v-479h817q44 0 75 -31.5t31 -75.5t-31 -75t-75 -31h-1077q-332 0 -568 233q-233 236 -233 568 zM297 801q0 -246 170 -416q172 -172 418 -172h47v1176h-47q-243 0 -418 -175q-170 -170 -170 -413z" />
<glyph unicode="&#x153;" horiz-adv-x="2240" d="M92 559q0 233 164 397t395 164q140 0 251 -57.5t206 -175.5q96 118 206.5 175.5t248.5 57.5q230 0 397 -164q164 -164 164 -397q0 -44 -30 -73t-75 -29h-792q32 -113 126.5 -180.5t209.5 -67.5q124 0 223 80q33 26 69 26q43 0 74 -30t31 -74q0 -45 -31 -76 q-156 -135 -366 -135q-232 0 -396 164q-39 39 -59 69q-184 -233 -457 -233q-231 0 -395 164t-164 395zM301 559q0 -145 102.5 -247.5t247.5 -102.5q147 0 250 102.5t103 247.5q0 148 -102.5 250t-250.5 102q-145 0 -247.5 -102.5t-102.5 -249.5zM1227 664h674 q-37 111 -129.5 179t-208.5 68q-113 0 -210 -69.5t-126 -177.5z" />
<glyph unicode="&#x178;" d="M76 1493q0 44 31 75t75 31q56 0 86 -43l375 -563l377 563q30 43 88 43q43 0 73.5 -31t30.5 -75q0 -33 -16 -59l-446 -666v-662q0 -44 -31.5 -75t-75.5 -31q-43 0 -73.5 31t-30.5 75v662l-447 666q-16 29 -16 59zM293 1839q0 50 37 86.5t88 36.5q50 0 86.5 -37t36.5 -86 q0 -51 -36.5 -87t-86.5 -36q-51 0 -88 36t-37 87zM750 1839q0 50 35.5 86.5t86.5 36.5t87 -36.5t36 -86.5q0 -51 -36 -87t-87 -36t-86.5 36t-35.5 87z" />
<glyph unicode="&#x2c6;" horiz-adv-x="800" d="M63 1343q0 53 50 91l229 149q26 16 53 16q30 0 56 -16l227 -149q49 -40 49 -91q0 -44 -29 -74t-73 -30q-30 0 -68 23l-162 106l-162 -106q-30 -23 -65 -23q-44 0 -74.5 30t-30.5 74z" />
<glyph unicode="&#x2dc;" horiz-adv-x="960" d="M68 1403q0 46 29.5 74t72.5 28q39 0 82 -32q44 -33 84 -33q45 0 74 26q85 82 219 82q53 0 112 -19t105.5 -59.5t46.5 -91.5q0 -44 -31 -74t-74 -30q-35 0 -79 33q-43 32 -84 32t-74 -26q-88 -82 -219 -82q-54 0 -113 18.5t-105 59.5t-46 94z" />
<glyph unicode="&#x2000;" horiz-adv-x="1039" />
<glyph unicode="&#x2001;" horiz-adv-x="2079" />
<glyph unicode="&#x2002;" horiz-adv-x="1039" />
<glyph unicode="&#x2003;" horiz-adv-x="2079" />
<glyph unicode="&#x2004;" horiz-adv-x="693" />
<glyph unicode="&#x2005;" horiz-adv-x="519" />
<glyph unicode="&#x2006;" horiz-adv-x="346" />
<glyph unicode="&#x2007;" horiz-adv-x="346" />
<glyph unicode="&#x2008;" horiz-adv-x="259" />
<glyph unicode="&#x2009;" horiz-adv-x="415" />
<glyph unicode="&#x200a;" horiz-adv-x="115" />
<glyph unicode="&#x2010;" horiz-adv-x="800" d="M74 559q0 44 30 74.5t74 30.5h457q44 0 73 -30t29 -75q0 -44 -29 -73t-73 -29h-457q-44 0 -74 29t-30 73z" />
<glyph unicode="&#x2011;" horiz-adv-x="800" d="M74 559q0 44 30 74.5t74 30.5h457q44 0 73 -30t29 -75q0 -44 -29 -73t-73 -29h-457q-44 0 -74 29t-30 73z" />
<glyph unicode="&#x2012;" horiz-adv-x="800" d="M74 559q0 44 30 74.5t74 30.5h457q44 0 73 -30t29 -75q0 -44 -29 -73t-73 -29h-457q-44 0 -74 29t-30 73z" />
<glyph unicode="&#x2013;" horiz-adv-x="800" d="M-104 559q0 44 30 74.5t74 30.5h803q43 0 73.5 -30.5t30.5 -74.5t-30.5 -73t-73.5 -29h-803q-44 0 -74 29t-30 73z" />
<glyph unicode="&#x2014;" horiz-adv-x="1918" d="M-104 559q0 44 30 74.5t74 30.5h1919q44 0 74 -30.5t30 -74.5t-30 -73t-74 -29h-1919q-44 0 -74 29t-30 73z" />
<glyph unicode="&#x2018;" horiz-adv-x="479" d="M109 1214q0 179 149 359q26 26 61 26t61 -25.5t26 -60.5q0 -16 -9 -34q-45 -107 -45 -209q0 -93 41 -183q13 -26 13 -49q0 -51 -37 -87t-88 -36q-44 0 -78.5 31t-54 78.5t-29.5 96.5t-10 93z" />
<glyph unicode="&#x2019;" horiz-adv-x="479" d="M109 999q0 20 6 35q45 107 45 209q0 92 -41 182q-10 27 -10 50q0 52 36 88t86 36q44 0 79 -31.5t55 -79t30.5 -96.5t10.5 -92q0 -174 -152 -358q-27 -27 -61 -27q-35 0 -59.5 24.5t-24.5 59.5z" />
<glyph unicode="&#x201a;" horiz-adv-x="479" d="M109 197q0 52 36 88.5t86 36.5q57 0 99 -54.5t59 -120t17 -124.5q0 -175 -152 -359q-26 -26 -61 -26t-59.5 24t-24.5 59q0 20 6 35q45 107 45 209q0 92 -41 182q-10 27 -10 50z" />
<glyph unicode="&#x201c;" horiz-adv-x="759" d="M74 1214q0 179 149 359q26 26 62 26q35 0 60.5 -25.5t25.5 -60.5q0 -16 -9 -34q-45 -107 -45 -209q0 -93 41 -183q13 -26 13 -49q0 -51 -37 -87t-88 -36q-44 0 -79 31t-54.5 78.5t-29 96.5t-9.5 93zM401 1214q0 175 152 359q26 26 61 26t59.5 -25.5t24.5 -60.5 q0 -16 -6 -34q-45 -107 -45 -209q0 -93 41 -183q10 -27 10 -49q0 -51 -36 -87t-87 -36q-44 0 -79 31t-54.5 78t-30 96.5t-10.5 93.5z" />
<glyph unicode="&#x201d;" horiz-adv-x="759" d="M74 999q0 20 6 35q45 107 45 209q0 92 -41 182q-10 27 -10 50q0 52 36 88t87 36q44 0 79 -31.5t54.5 -79t30 -96.5t10.5 -92q0 -174 -152 -358q-27 -27 -61 -27q-35 0 -59.5 24.5t-24.5 59.5zM401 999q0 20 9 35q45 107 45 209q0 92 -41 182q-13 26 -13 50q0 52 37 88 t88 36q44 0 79 -31t54.5 -79t29 -97t9.5 -92q0 -178 -149 -358q-27 -27 -62 -27t-60.5 24.5t-25.5 59.5z" />
<glyph unicode="&#x201e;" horiz-adv-x="759" d="M74 197q0 52 36 88.5t87 36.5q43 0 78.5 -31.5t55 -79.5t30 -97t10.5 -91q0 -175 -152 -359q-26 -26 -61 -26t-59.5 24t-24.5 59q0 20 6 35q45 107 45 209q0 92 -41 182q-10 27 -10 50zM401 197q0 52 37 88.5t88 36.5q44 0 79 -31.5t54.5 -79.5t29 -97t9.5 -91 q0 -179 -149 -359q-26 -26 -62 -26t-61 24t-25 59q0 20 9 35q45 107 45 209q0 92 -41 182q-13 26 -13 50z" />
<glyph unicode="&#x2022;" horiz-adv-x="800" d="M150 788q0 106 76.5 181t179.5 75q104 0 180 -76.5t76 -179.5q0 -105 -74 -180.5t-182 -75.5q-105 0 -180.5 74.5t-75.5 181.5z" />
<glyph unicode="&#x2026;" horiz-adv-x="1439" d="M82 141q0 58 40.5 101t100.5 43q57 0 99.5 -43t42.5 -101t-42.5 -99.5t-99.5 -41.5q-59 0 -100 41.5t-41 99.5zM555 141q0 56 42.5 100t100.5 44t101 -42.5t43 -101.5q0 -56 -44 -98.5t-100 -42.5t-99.5 42.5t-43.5 98.5zM1032 141q0 58 42 101t100 43q59 0 101 -43.5 t42 -100.5t-42.5 -99t-100.5 -42q-57 0 -99.5 42t-42.5 99z" />
<glyph unicode="&#x202f;" horiz-adv-x="415" />
<glyph unicode="&#x2039;" horiz-adv-x="559" d="M76 559q0 25 12 49l223 447q26 63 97 63q44 0 74 -29t30 -73q0 -29 -8 -45l-205 -412l205 -412q8 -16 8 -43q0 -43 -30 -73.5t-74 -30.5q-62 0 -97 63l-221 443q-14 25 -14 53z" />
<glyph unicode="&#x203a;" horiz-adv-x="559" d="M76 1016q2 44 31 73t73 29q70 0 96 -63l224 -447q12 -24 12 -49q0 -28 -14 -53l-222 -443q-28 -63 -96 -63q-44 0 -73 30.5t-29 73.5q0 27 8 43l205 412l-205 412q-6 13 -10 45z" />
<glyph unicode="&#x205f;" horiz-adv-x="519" />
<glyph unicode="&#x20ac;" horiz-adv-x="1480" d="M82 799q0 329 233 565q235 235 566 235q282 0 514 -188q28 -28 28 -74q0 -44 -31 -74t-75 -30q-37 0 -74 29q-151 124 -362 124q-167 0 -308 -85t-221 -242h838q44 0 74 -30.5t30 -74.5q0 -47 -29.5 -76.5t-74.5 -29.5h-895q-3 -50 0 -96h895q44 0 74 -31t30 -76 q0 -47 -29.5 -75.5t-74.5 -28.5h-838q77 -154 220.5 -241t308.5 -87q209 0 368 129q27 18 62 18q42 0 74 -32t32 -72q0 -49 -33 -78q-224 -178 -503 -178q-330 0 -566 233q-233 233 -233 566z" />
<glyph unicode="&#x2122;" horiz-adv-x="1499" d="M78 1559q0 17 13.5 28.5t33.5 11.5h453q19 0 33 -11.5t14 -28.5q0 -18 -14 -30.5t-33 -12.5h-179v-512q0 -19 -14 -31t-35 -12q-19 0 -33 12.5t-14 30.5v512h-178q-20 0 -33.5 12t-13.5 31zM680 1004v555q0 17 13.5 28.5t33.5 11.5q29 0 43 -22l270 -479l269 479 q14 22 43 22q20 0 33.5 -11.5t13.5 -28.5v-555q0 -19 -13.5 -31t-33.5 -12t-33.5 12t-13.5 31v374l-224 -397q-17 -20 -41 -20q-33 0 -45 24l-221 393v-374q0 -19 -13.5 -31t-33.5 -12t-33.5 12t-13.5 31z" />
<glyph unicode="&#x25fc;" horiz-adv-x="1116" d="M0 0v1116h1116v-1116h-1116z" />
</font>
</defs>
</svg>
